<svg width="64" height="64" viewBox="0 0 64 64"  xmlns="http://www.w3.org/2000/svg">
<path d="M56.3269 2.375H7.67293C7.44117 2.3754 7.21905 2.46778 7.05535 2.63185C6.89166 2.79591 6.79979 3.01824 6.79993 3.25V60.75C6.79986 60.8649 6.82245 60.9787 6.8664 61.0849C6.91035 61.1911 6.9748 61.2876 7.05606 61.3689C7.13733 61.4501 7.23381 61.5146 7.34 61.5585C7.44619 61.6025 7.56 61.6251 7.67493 61.625H56.3289C56.4439 61.6251 56.5577 61.6025 56.6639 61.5585C56.77 61.5146 56.8665 61.4501 56.9478 61.3689C57.0291 61.2876 57.0935 61.1911 57.1375 61.0849C57.1814 60.9787 57.204 60.8649 57.2039 60.75V3.25C57.204 3.13491 57.1813 3.02094 57.1373 2.91461C57.0932 2.80829 57.0286 2.71172 56.9471 2.63043C56.8656 2.54914 56.7689 2.48473 56.6625 2.4409C56.556 2.39707 56.442 2.37467 56.3269 2.375ZM55.4519 4.125V19.375H8.54993V4.125H55.4519ZM8.54993 59.875V21.125H55.4499V59.875H8.54993Z" />
<path d="M12.1729 16.625H51.8269C51.9419 16.6251 52.0557 16.6025 52.1619 16.5585C52.268 16.5146 52.3645 16.4501 52.4458 16.3689C52.5271 16.2876 52.5915 16.1911 52.6355 16.0849C52.6794 15.9787 52.702 15.8649 52.7019 15.75V7.75C52.702 7.63507 52.6794 7.52126 52.6355 7.41507C52.5915 7.30888 52.5271 7.2124 52.4458 7.13114C52.3645 7.04987 52.268 6.98542 52.1619 6.94147C52.0557 6.89752 51.9419 6.87493 51.8269 6.875H12.1729C11.9412 6.8754 11.719 6.96778 11.5554 7.13184C11.3917 7.29591 11.2998 7.51824 11.2999 7.75V15.75C11.2998 15.9818 11.3917 16.2041 11.5554 16.3682C11.719 16.5322 11.9412 16.6246 12.1729 16.625ZM13.0479 8.625H50.9499V14.875H13.0499L13.0479 8.625Z" />
<path d="M18.874 23.9585H12.174C12.059 23.9584 11.9452 23.981 11.839 24.025C11.7328 24.0689 11.6363 24.1334 11.5551 24.2146C11.4738 24.2959 11.4094 24.3924 11.3654 24.4986C11.3215 24.6048 11.2989 24.7186 11.299 24.8335V30.1665C11.2989 30.2814 11.3215 30.3952 11.3654 30.5014C11.4094 30.6076 11.4738 30.7041 11.5551 30.7854C11.6363 30.8666 11.7328 30.9311 11.839 30.975C11.9452 31.019 12.059 31.0416 12.174 31.0415H18.874C18.9889 31.0416 19.1027 31.019 19.2089 30.975C19.3151 30.9311 19.4116 30.8666 19.4928 30.7854C19.5741 30.7041 19.6385 30.6076 19.6825 30.5014C19.7264 30.3952 19.749 30.2814 19.749 30.1665V24.8335C19.749 24.7186 19.7264 24.6048 19.6825 24.4986C19.6385 24.3924 19.5741 24.2959 19.4928 24.2146C19.4116 24.1334 19.3151 24.0689 19.2089 24.025C19.1027 23.981 18.9889 23.9584 18.874 23.9585ZM18 29.2915H13.05V25.7085H18V29.2915Z" />
<path d="M29.8584 23.9585H23.1584C22.9264 23.9585 22.7038 24.0507 22.5397 24.2148C22.3756 24.3789 22.2834 24.6014 22.2834 24.8335V30.1665C22.2834 30.3986 22.3756 30.6211 22.5397 30.7852C22.7038 30.9493 22.9264 31.0415 23.1584 31.0415H29.8584C29.9734 31.0416 30.0872 31.019 30.1934 30.975C30.2996 30.9311 30.396 30.8666 30.4773 30.7854C30.5586 30.7041 30.623 30.6076 30.667 30.5014C30.7109 30.3952 30.7335 30.2814 30.7334 30.1665V24.8335C30.7335 24.7186 30.7109 24.6048 30.667 24.4986C30.623 24.3924 30.5586 24.2959 30.4773 24.2146C30.396 24.1334 30.2996 24.0689 30.1934 24.025C30.0872 23.981 29.9734 23.9584 29.8584 23.9585ZM28.9834 29.2915H24.0334V25.7085H28.9834V29.2915Z" />
<path d="M40.8429 23.9585H34.1429C34.028 23.9584 33.9142 23.981 33.808 24.025C33.7018 24.0689 33.6053 24.1334 33.5241 24.2146C33.4428 24.2959 33.3784 24.3924 33.3344 24.4986C33.2905 24.6048 33.2679 24.7186 33.2679 24.8335V30.1665C33.2679 30.2814 33.2905 30.3952 33.3344 30.5014C33.3784 30.6076 33.4428 30.7041 33.5241 30.7854C33.6053 30.8666 33.7018 30.9311 33.808 30.975C33.9142 31.019 34.028 31.0416 34.1429 31.0415H40.8429C41.075 31.0415 41.2976 30.9493 41.4617 30.7852C41.6258 30.6211 41.7179 30.3986 41.7179 30.1665V24.8335C41.7179 24.6014 41.6258 24.3789 41.4617 24.2148C41.2976 24.0507 41.075 23.9585 40.8429 23.9585ZM39.9679 29.2915H35.0179V25.7085H39.9679V29.2915Z" />
<path d="M51.827 23.9585H45.127C45.012 23.9584 44.8982 23.981 44.792 24.025C44.6858 24.0689 44.5894 24.1334 44.5081 24.2146C44.4268 24.2959 44.3624 24.3924 44.3184 24.4986C44.2745 24.6048 44.2519 24.7186 44.252 24.8335V30.1665C44.2519 30.2814 44.2745 30.3952 44.3184 30.5014C44.3624 30.6076 44.4268 30.7041 44.5081 30.7854C44.5894 30.8666 44.6858 30.9311 44.792 30.975C44.8982 31.019 45.012 31.0416 45.127 31.0415H51.827C51.9419 31.0416 52.0557 31.019 52.1619 30.975C52.2681 30.9311 52.3646 30.8666 52.4458 30.7854C52.5271 30.7041 52.5915 30.6076 52.6355 30.5014C52.6794 30.3952 52.702 30.2814 52.702 30.1665V24.8335C52.702 24.7186 52.6794 24.6048 52.6355 24.4986C52.5915 24.3924 52.5271 24.2959 52.4458 24.2146C52.3646 24.1334 52.2681 24.0689 52.1619 24.025C52.0557 23.981 51.9419 23.9584 51.827 23.9585ZM50.95 29.2915H46V25.7085H50.95V29.2915Z" />
<path d="M18.8739 32.625H12.1739C12.0591 32.6251 11.9454 32.6478 11.8393 32.6918C11.7332 32.7358 11.6369 32.8002 11.5557 32.8815C11.4745 32.9627 11.4102 33.0592 11.3663 33.1653C11.3224 33.2714 11.2999 33.3852 11.2999 33.5V38.8335C11.2999 38.9484 11.3224 39.0622 11.3664 39.1684C11.4103 39.2746 11.4748 39.3711 11.5561 39.4524C11.6373 39.5336 11.7338 39.5981 11.84 39.642C11.9462 39.686 12.06 39.7086 12.1749 39.7085H18.8749C18.9898 39.7086 19.1037 39.686 19.2098 39.642C19.316 39.5981 19.4125 39.5336 19.4938 39.4524C19.5751 39.3711 19.6395 39.2746 19.6834 39.1684C19.7274 39.0622 19.75 38.9484 19.7499 38.8335V33.5C19.75 33.385 19.7274 33.2711 19.6834 33.1648C19.6393 33.0586 19.5748 32.9621 19.4934 32.8808C19.4121 32.7995 19.3155 32.7351 19.2092 32.6912C19.1028 32.6473 18.9889 32.6248 18.8739 32.625ZM17.9999 37.9585H13.0499V34.375H17.9999V37.9585Z" />
<path d="M29.8585 32.625H23.1585C23.0435 32.6248 22.9295 32.6473 22.8232 32.6912C22.7168 32.7351 22.6202 32.7995 22.5388 32.8808C22.4574 32.962 22.3928 33.0586 22.3487 33.1648C22.3047 33.2711 22.282 33.385 22.282 33.5V38.8335C22.282 39.0656 22.3742 39.2881 22.5383 39.4522C22.7024 39.6163 22.9249 39.7085 23.157 39.7085H29.857C29.9719 39.7086 30.0857 39.686 30.1919 39.642C30.2981 39.5981 30.3946 39.5336 30.4758 39.4524C30.5571 39.3711 30.6216 39.2746 30.6655 39.1684C30.7095 39.0622 30.732 38.9484 30.732 38.8335V33.5C30.7321 33.2682 30.6402 33.0457 30.4764 32.8817C30.3126 32.7176 30.0903 32.6253 29.8585 32.625ZM28.9835 37.9585H24.0335V34.375H28.9835V37.9585Z" />
<path d="M40.8429 32.625H34.1429C34.0278 32.6247 33.9138 32.6472 33.8075 32.691C33.7011 32.7349 33.6044 32.7993 33.523 32.8806C33.4416 32.9619 33.377 33.0584 33.333 33.1647C33.2889 33.271 33.2663 33.385 33.2664 33.5V38.8335C33.2663 38.9484 33.2889 39.0622 33.3328 39.1684C33.3768 39.2746 33.4412 39.3711 33.5225 39.4524C33.6038 39.5336 33.7002 39.5981 33.8064 39.642C33.9126 39.686 34.0264 39.7086 34.1414 39.7085H40.8414C41.0734 39.7085 41.296 39.6163 41.4601 39.4522C41.6242 39.2881 41.7164 39.0656 41.7164 38.8335V33.5C41.7164 33.2682 41.6244 33.0459 41.4606 32.8818C41.2968 32.7178 41.0747 32.6254 40.8429 32.625ZM39.9679 37.9585H35.0179V34.375H39.9679V37.9585Z" />
<path d="M51.827 32.625H45.127C45.0119 32.6247 44.8979 32.6471 44.7915 32.6909C44.685 32.7347 44.5883 32.7991 44.5068 32.8804C44.4254 32.9617 44.3607 33.0583 44.3167 33.1646C44.2726 33.2709 44.2499 33.3849 44.25 33.5V38.8335C44.2499 38.9484 44.2725 39.0622 44.3165 39.1684C44.3604 39.2746 44.4249 39.3711 44.5061 39.4524C44.5874 39.5336 44.6839 39.5981 44.7901 39.642C44.8963 39.686 45.0101 39.7086 45.125 39.7085H51.825C51.9399 39.7086 52.0537 39.686 52.1599 39.642C52.2661 39.5981 52.3626 39.5336 52.4439 39.4524C52.5251 39.3711 52.5896 39.2746 52.6335 39.1684C52.6775 39.0622 52.7001 38.9484 52.7 38.8335V33.5C52.7001 33.2682 52.6083 33.0459 52.4446 32.8818C52.2809 32.7178 52.0588 32.6254 51.827 32.625ZM50.95 37.9585H46V34.375H50.95V37.9585Z" />
<path d="M18.874 41.2915H12.174C12.059 41.2914 11.9452 41.314 11.839 41.358C11.7328 41.4019 11.6363 41.4664 11.5551 41.5476C11.4738 41.6289 11.4094 41.7254 11.3654 41.8316C11.3215 41.9378 11.2989 42.0516 11.299 42.1665V47.5C11.2989 47.6149 11.3215 47.7287 11.3654 47.8349C11.4094 47.9411 11.4738 48.0376 11.5551 48.1189C11.6363 48.2001 11.7328 48.2646 11.839 48.3085C11.9452 48.3525 12.059 48.3751 12.174 48.375H18.874C18.989 48.3752 19.1029 48.3527 19.2092 48.3088C19.3155 48.2649 19.4121 48.2005 19.4935 48.1192C19.5748 48.0379 19.6394 47.9414 19.6834 47.8352C19.7274 47.7289 19.75 47.615 19.75 47.5V42.1665C19.75 42.0515 19.7274 41.9376 19.6834 41.8313C19.6394 41.7251 19.5748 41.6286 19.4935 41.5473C19.4121 41.466 19.3155 41.4016 19.2092 41.3577C19.1029 41.3138 18.989 41.2913 18.874 41.2915ZM18 46.625H13.05V43.0415H18V46.625Z" />
<path d="M29.8584 41.2915H23.1584C22.9264 41.2915 22.7038 41.3837 22.5397 41.5478C22.3756 41.7119 22.2834 41.9344 22.2834 42.1665V47.5C22.2834 47.7321 22.3756 47.9546 22.5397 48.1187C22.7038 48.2828 22.9264 48.375 23.1584 48.375H29.8584C29.9734 48.3751 30.0872 48.3525 30.1934 48.3085C30.2996 48.2646 30.396 48.2001 30.4773 48.1189C30.5586 48.0376 30.623 47.9411 30.667 47.8349C30.7109 47.7287 30.7335 47.6149 30.7334 47.5V42.1665C30.7335 42.0516 30.7109 41.9378 30.667 41.8316C30.623 41.7254 30.5586 41.6289 30.4773 41.5476C30.396 41.4664 30.2996 41.4019 30.1934 41.358C30.0872 41.314 29.9734 41.2914 29.8584 41.2915ZM28.9834 46.625H24.0334V43.0415H28.9834V46.625Z" />
<path d="M40.8429 41.2915H34.1429C34.028 41.2914 33.9142 41.314 33.808 41.358C33.7018 41.4019 33.6053 41.4664 33.5241 41.5476C33.4428 41.6289 33.3784 41.7254 33.3344 41.8316C33.2905 41.9378 33.2679 42.0516 33.2679 42.1665V47.5C33.2679 47.6149 33.2905 47.7287 33.3344 47.8349C33.3784 47.9411 33.4428 48.0376 33.5241 48.1189C33.6053 48.2001 33.7018 48.2646 33.808 48.3085C33.9142 48.3525 34.028 48.3751 34.1429 48.375H40.8429C41.075 48.375 41.2976 48.2828 41.4617 48.1187C41.6258 47.9546 41.7179 47.7321 41.7179 47.5V42.1665C41.7179 41.9344 41.6258 41.7119 41.4617 41.5478C41.2976 41.3837 41.075 41.2915 40.8429 41.2915ZM39.9679 46.625H35.0179V43.0415H39.9679V46.625Z" />
<path d="M18.874 49.9585H12.174C12.059 49.9584 11.9452 49.981 11.839 50.025C11.7328 50.0689 11.6363 50.1334 11.5551 50.2146C11.4738 50.2959 11.4094 50.3924 11.3654 50.4986C11.3215 50.6048 11.2989 50.7186 11.299 50.8335V56.1665C11.2989 56.2814 11.3215 56.3952 11.3654 56.5014C11.4094 56.6076 11.4738 56.7041 11.5551 56.7854C11.6363 56.8666 11.7328 56.9311 11.839 56.975C11.9452 57.019 12.059 57.0416 12.174 57.0415H18.874C18.9889 57.0416 19.1027 57.019 19.2089 56.975C19.3151 56.9311 19.4116 56.8666 19.4928 56.7854C19.5741 56.7041 19.6385 56.6076 19.6825 56.5014C19.7264 56.3952 19.749 56.2814 19.749 56.1665V50.8335C19.749 50.7186 19.7264 50.6048 19.6825 50.4986C19.6385 50.3924 19.5741 50.2959 19.4928 50.2146C19.4116 50.1334 19.3151 50.0689 19.2089 50.025C19.1027 49.981 18.9889 49.9584 18.874 49.9585ZM18 55.2915H13.05V51.7085H18V55.2915Z" />
<path d="M29.8584 49.9585H23.1584C22.9264 49.9585 22.7038 50.0507 22.5397 50.2148C22.3756 50.3789 22.2834 50.6014 22.2834 50.8335V56.1665C22.2834 56.3986 22.3756 56.6211 22.5397 56.7852C22.7038 56.9493 22.9264 57.0415 23.1584 57.0415H29.8584C29.9734 57.0416 30.0872 57.019 30.1934 56.975C30.2996 56.9311 30.396 56.8666 30.4773 56.7854C30.5586 56.7041 30.623 56.6076 30.667 56.5014C30.7109 56.3952 30.7335 56.2814 30.7334 56.1665V50.8335C30.7335 50.7186 30.7109 50.6048 30.667 50.4986C30.623 50.3924 30.5586 50.2959 30.4773 50.2146C30.396 50.1334 30.2996 50.0689 30.1934 50.025C30.0872 49.981 29.9734 49.9584 29.8584 49.9585ZM28.9834 55.2915H24.0334V51.7085H28.9834V55.2915Z" />
<path d="M40.8429 49.9585H34.1429C34.028 49.9584 33.9142 49.981 33.808 50.025C33.7018 50.0689 33.6053 50.1334 33.5241 50.2146C33.4428 50.2959 33.3784 50.3924 33.3344 50.4986C33.2905 50.6048 33.2679 50.7186 33.2679 50.8335V56.1665C33.2679 56.2814 33.2905 56.3952 33.3344 56.5014C33.3784 56.6076 33.4428 56.7041 33.5241 56.7854C33.6053 56.8666 33.7018 56.9311 33.808 56.975C33.9142 57.019 34.028 57.0416 34.1429 57.0415H40.8429C41.075 57.0415 41.2976 56.9493 41.4617 56.7852C41.6258 56.6211 41.7179 56.3986 41.7179 56.1665V50.8335C41.7179 50.6014 41.6258 50.3789 41.4617 50.2148C41.2976 50.0507 41.075 49.9585 40.8429 49.9585ZM39.9679 55.2915H35.0179V51.7085H39.9679V55.2915Z" />
<path d="M51.827 41.2915H45.127C45.012 41.2914 44.8982 41.314 44.792 41.358C44.6858 41.4019 44.5894 41.4664 44.5081 41.5476C44.4268 41.6289 44.3624 41.7254 44.3184 41.8316C44.2745 41.9378 44.2519 42.0516 44.252 42.1665V56.1665C44.2519 56.2814 44.2745 56.3952 44.3184 56.5014C44.3624 56.6076 44.4268 56.7041 44.5081 56.7854C44.5894 56.8666 44.6858 56.9311 44.792 56.975C44.8982 57.019 45.012 57.0416 45.127 57.0415H51.827C51.9419 57.0416 52.0557 57.019 52.1619 56.975C52.2681 56.9311 52.3646 56.8666 52.4458 56.7854C52.5271 56.7041 52.5915 56.6076 52.6355 56.5014C52.6794 56.3952 52.702 56.2814 52.702 56.1665V42.1665C52.702 42.0516 52.6794 41.9378 52.6355 41.8316C52.5915 41.7254 52.5271 41.6289 52.4458 41.5476C52.3646 41.4664 52.2681 41.4019 52.1619 41.358C52.0557 41.314 51.9419 41.2914 51.827 41.2915ZM50.952 55.2915H46V43.0415H50.95L50.952 55.2915Z" />
</svg>
