<svg width="64" height="64" viewBox="0 0 64 64"  xmlns="http://www.w3.org/2000/svg">
<g clip-path="url(#clip0)">
<path d="M16.7109 48.1099H14.8359V46.2349H16.7109V48.1099ZM13.5859 48.1099H11.7109V46.2349H13.5859V48.1099Z" />
<path d="M58.8853 13.1528C58.7544 13.1689 55.6333 13.5688 51.4067 15.0474C46.0859 16.9092 40.918 19.8472 36.978 23.916H10.9199V25.791H35.3052C34.2812 27.0371 33.3818 28.3242 32.5928 29.605H10.9199V31.48H31.5093C29.1929 35.7607 27.5508 40.7778 26.9316 44.8267L22.5044 49.2539L23.8306 50.5801L28.2573 46.1528C29.1724 46.0127 31.9116 45.5283 35.4097 44.3042C39.3164 42.9375 44.9331 40.3481 49.5068 35.7744C54.0801 31.2007 56.6699 25.584 58.0366 21.6777C59.5156 17.4512 59.915 14.3296 59.9312 14.1992L60.0801 13.0039L58.8853 13.1528ZM56.3237 20.8721H53.9287V22.7471H55.6279C54.5264 25.5176 52.9619 28.6074 50.7607 31.4912H47.5586V33.3662H49.2065C44.4121 38.6934 37.501 42.0815 30.6636 43.7471L44.8413 29.5688L43.5156 28.2427L29.3345 42.4243C30.271 38.5679 32.5366 31.6577 37.5508 26.0522V27.7954H39.4258V24.145C40.7891 22.8838 42.2373 21.79 43.7061 20.8438V22.605H45.5811V19.7168C50.6333 16.8862 55.5986 15.6714 57.8555 15.23C57.6172 16.4536 57.1514 18.4736 56.3237 20.8721Z" />
<path d="M40.1025 7.81689H9.98242V14.4126H40.1025V7.81689ZM38.2275 12.5376H11.8574V9.69189H38.2275V12.5376Z" />
<path d="M17.0562 18.2266H39.165V20.1016H17.0562V18.2266Z" />
<path d="M10.9199 35.2944H24.1021V37.1694H10.9199V35.2944Z" />
<path d="M33.3887 54.2993L34.9243 52.7642L36.7109 54.5508H40.9375V52.6758H37.4873L34.9243 50.1123L33.3887 51.6479L30.9209 49.1802L26.1919 53.9087L27.5181 55.2349L30.9209 51.8315L33.3887 54.2993Z" />
<path d="M14.2109 57.061L17.9937 58.6943V52.4048C19.6147 51.23 20.6719 49.3228 20.6719 47.1719C20.6719 43.6094 17.7734 40.7109 14.2109 40.7109C10.6484 40.7109 7.75 43.6094 7.75 47.1719C7.75 49.3228 8.80713 51.23 10.4282 52.4048V58.6943L14.2109 57.061ZM16.1187 53.3457V55.8423L14.2109 55.0186L12.3032 55.8423V53.3457C13.5908 53.7432 14.9316 53.7119 16.1187 53.3457ZM9.625 47.1724C9.625 44.6436 11.6821 42.5859 14.2109 42.5859C16.7397 42.5859 18.7969 44.6436 18.7969 47.1724C18.7969 49.8276 16.5298 51.9512 13.8511 51.7427C11.479 51.5566 9.625 49.5693 9.625 47.1724Z" />
<path d="M43.7061 62.125H5.875V5.06689C5.875 3.30664 7.30664 1.875 9.06689 1.875H44.8403C44.2207 2.63721 43.8257 3.5791 43.73 4.58057C43.6958 4.93652 43.7061 4.17676 43.7061 15.873H45.5811V13.5654H53.8398V5.06689C53.8398 2.27295 51.5669 0 48.7729 0H9.06689C6.27295 0 4 2.27295 4 5.06689V64H45.5811V42.0596H43.7061V62.125ZM51.9648 5.06689V11.6904H45.5811V5.06689C45.5811 3.30664 47.0127 1.875 48.7729 1.875C50.5327 1.875 51.9648 3.30664 51.9648 5.06689Z" />
</g>
</svg>
