<svg width="64" height="64" viewBox="0 0 64 64"  xmlns="http://www.w3.org/2000/svg">
<path d="M58.6278 0H41.5561C38.2548 0 35.7955 1.05094 33.3329 3.51356C32.9157 3.93081 32.9157 4.60514 33.3329 5.02226C33.7501 5.43951 34.4244 5.43951 34.8416 5.02226C36.9201 2.94376 38.8033 2.13389 41.5561 2.13389H58.6278C60.3926 2.13389 61.8288 3.57007 61.8288 5.33485V22.4067C61.8288 25.1607 61.0189 27.0428 58.9394 29.1213L27.252 60.8536C26.042 62.0624 23.9327 62.0614 22.7259 60.8536L3.10927 41.2369C2.50434 40.632 2.17137 39.8285 2.17137 38.9727C2.17137 38.1181 2.50422 37.3146 3.10927 36.7107L31.7494 8.11119C32.189 8.22322 32.6308 8.33526 33.0874 8.45792C37.429 9.62089 40.854 10.8224 43.4073 11.8957C42.9047 12.825 42.623 13.8675 42.623 14.9377C42.623 18.4684 45.4943 21.3397 49.025 21.3397C52.5556 21.3397 55.4269 18.4684 55.4269 14.9377C55.4269 11.4071 52.5556 8.53582 49.025 8.53582C48.4349 8.53582 47.958 9.01384 47.958 9.60276C47.958 10.1917 48.4349 10.6697 49.025 10.6697C51.3788 10.6697 53.2929 12.5839 53.2929 14.9376C53.2929 17.2915 51.3787 19.2055 49.025 19.2055C46.6712 19.2055 44.757 17.2913 44.757 14.9376C44.757 14.1694 44.9672 13.4193 45.3546 12.7663C47.2027 13.6509 48.3581 14.3967 48.8149 14.8726C48.6196 14.9281 48.3176 14.99 47.8621 15.0294C47.2753 15.0817 46.841 15.5992 46.8933 16.186C46.9425 16.7408 47.4076 17.1602 47.955 17.1602C47.9859 17.1602 48.0179 17.158 48.0499 17.1559C48.7061 17.0973 50.7025 16.9212 51.0866 15.4903C52.1375 11.5649 36.7378 7.22642 33.6402 6.3963C28.9017 5.12654 24.3499 4.25803 20.8246 3.95081C16.4894 3.57095 14.38 4.06497 13.9842 5.54804C13.7932 6.25976 13.2875 8.14933 21.9374 11.5605C22.488 11.776 23.1058 11.5082 23.3224 10.9587C23.5379 10.4113 23.269 9.79132 22.7217 9.57588C18.5423 7.92738 16.8105 6.71952 16.2536 6.15085C17.5714 5.76461 22.0709 5.87664 29.3157 7.52401L1.60057 35.201C0.592268 36.2093 0.0374756 37.5483 0.0374756 38.9727C0.0374756 40.3983 0.592268 41.7383 1.60057 42.7456L21.2171 62.3621C22.2243 63.3693 23.5634 63.9242 24.9889 63.9242C26.4133 63.9242 27.7523 63.3694 28.7617 62.3611L60.4491 30.63C62.9128 28.1673 63.9627 25.708 63.9627 22.4067V5.33498C63.9628 2.39322 61.5695 0 58.6278 0Z" />
<path d="M55.4002 39.0251C54.8902 38.7252 54.2373 38.897 53.9395 39.4059L41.7097 60.2665C40.8262 61.7955 38.8663 62.3227 37.3842 61.4669L35.0006 59.9229C34.5066 59.6017 33.845 59.7436 33.526 60.2377C33.2048 60.7317 33.3467 61.3933 33.8408 61.7133L36.2702 63.2861C37.1079 63.7705 38.0233 63.9999 38.9292 63.9999C40.774 63.9999 42.5686 63.045 43.5534 61.3399L55.78 40.4845C56.0777 39.9767 55.9081 39.3228 55.4002 39.0251Z" />
<path d="M25.5513 30.9427V45.8806C25.5513 46.4695 26.0282 46.9475 26.6182 46.9475C27.2083 46.9475 27.6852 46.4695 27.6852 45.8806V30.9427C27.6852 30.3538 27.2083 29.8757 26.6182 29.8757C26.0282 29.8757 25.5513 30.3536 25.5513 30.9427Z" />
<path d="M31.9532 34.1435C31.9532 35.3204 32.9103 36.2776 34.0873 36.2776C35.2642 36.2776 36.2213 35.3205 36.2213 34.1435C36.2213 32.9667 35.2642 32.0095 34.0873 32.0095C32.9103 32.0095 31.9532 32.9666 31.9532 34.1435Z" />
<path d="M17.0154 40.5456C17.0154 41.7225 17.9724 42.6797 19.1494 42.6797C20.3263 42.6797 21.2834 41.7226 21.2834 40.5456C21.2834 39.3687 20.3263 38.4116 19.1494 38.4116C17.9724 38.4116 17.0154 39.3687 17.0154 40.5456Z" />
</svg>
