<svg width="64" height="64" viewBox="0 0 64 64"  xmlns="http://www.w3.org/2000/svg">
<g clip-path="url(#clip0)">
<path d="M31.9999 5.91187C26.7547 5.91187 21.8409 7.97249 18.1622 11.716L18.107 11.7724C17.746 12.1419 17.7528 12.734 18.1222 13.0951C18.4915 13.4561 19.0838 13.4494 19.4449 13.08L19.4982 13.0255C22.8207 9.64449 27.2605 7.78262 31.9999 7.78262C41.6642 7.78262 49.5267 15.645 49.5267 25.3094C49.5267 34.9737 41.6642 42.8361 31.9999 42.8361C22.3357 42.8361 14.4732 34.9736 14.4732 25.3094C14.4732 22.1521 15.3217 19.0575 16.9269 16.36C17.191 15.916 17.0454 15.342 16.6014 15.0779C16.1573 14.8137 15.5834 14.9595 15.3193 15.4034C13.5419 18.3901 12.6024 21.8156 12.6024 25.3095C12.6024 36.0052 21.304 44.707 31.9998 44.707C42.6955 44.707 51.3972 36.0052 51.3972 25.3095C51.3972 14.6137 42.6957 5.91187 31.9999 5.91187Z" />
<path d="M55.6917 21.4165C55.1842 20.6609 54.7049 19.9471 54.5248 19.2735C54.3327 18.5546 54.3901 17.669 54.4509 16.7314C54.5417 15.3327 54.6356 13.8864 53.9211 12.6516C53.1956 11.3976 51.8849 10.754 50.6174 10.1315C49.7841 9.72225 48.9968 9.33563 48.4852 8.824C47.9736 8.31225 47.5869 7.52513 47.1776 6.69163C46.5552 5.42425 45.9116 4.11363 44.6574 3.38812C43.4227 2.67375 41.9764 2.76762 40.5777 2.85825C39.6401 2.91912 38.7546 2.97662 38.0354 2.78437C37.3618 2.60425 36.6481 2.125 35.8924 1.6175C34.7638 0.859375 33.4842 0 31.9999 0C30.5157 0 29.2361 0.859375 28.1071 1.61762C27.3514 2.12512 26.6378 2.60437 25.9642 2.78437C25.2453 2.97662 24.3597 2.91912 23.4221 2.85825C22.0233 2.76762 20.5772 2.67375 19.3423 3.38812C18.0883 4.11363 17.4447 5.42425 16.8222 6.69163C16.4129 7.52513 16.0263 8.31238 15.5146 8.824C15.0029 9.33563 14.2158 9.72225 13.3823 10.1315C12.1148 10.7539 10.8043 11.3976 10.0787 12.6516C9.36418 13.8864 9.45805 15.3328 9.5488 16.7315C9.60968 17.669 9.66705 18.5546 9.47493 19.2735C9.2948 19.9471 8.81555 20.6609 8.30805 21.4165C7.54993 22.5455 6.69055 23.825 6.69055 25.3092C6.69055 26.7935 7.5498 28.0731 8.30805 29.2021C8.81543 29.9578 9.2948 30.6715 9.4748 31.3451C9.66693 32.064 9.60955 32.9496 9.54868 33.8872C9.45793 35.2859 9.36405 36.7321 10.0786 37.967C10.8041 39.221 12.1147 39.8647 13.3822 40.4871C14.2156 40.8964 15.0028 41.283 15.5144 41.7946C15.9888 42.269 16.3558 42.981 16.7329 43.7463L9.93905 56.245C9.64755 56.7812 9.65593 57.4169 9.96155 57.9451C10.2672 58.4735 10.8138 58.7976 11.4239 58.8124L16.6341 58.9385L19.5734 63.2421C19.9006 63.7211 20.4311 64 21.0061 64C21.0361 64 21.0663 63.9992 21.0966 63.9977C21.7061 63.9669 22.2439 63.6283 22.5354 63.092L29.6692 49.9681C30.3872 50.3439 31.1607 50.6186 31.9998 50.6186C32.8388 50.6186 33.6124 50.3439 34.3304 49.9681L41.4642 63.0921C41.7557 63.6284 42.2936 63.967 42.9031 63.9979C42.9334 63.9994 42.9636 64.0001 42.9936 64.0001C43.5686 64.0001 44.0991 63.7212 44.4262 63.2422L47.3656 58.9386L52.5756 58.8125C53.1857 58.7977 53.7324 58.4735 54.0379 57.9453C54.3436 57.4169 54.3519 56.7814 54.0604 56.2451L51.5761 51.6745C51.3293 51.2205 50.7614 51.0524 50.3076 51.2994C49.8537 51.5461 49.6858 52.114 49.9324 52.5679L52.3131 56.9475L47.2521 57.07C46.6943 57.0835 46.1735 57.3666 45.8591 57.8273L43.0038 62.0076L35.9228 48.9806C36.6672 48.4808 37.3709 48.0117 38.0354 47.8341C38.7543 47.642 39.6399 47.6994 40.5776 47.7603C41.9764 47.851 43.4226 47.9449 44.6573 47.2304C45.3109 46.8522 45.7979 46.3145 46.2033 45.7074L47.8744 48.7819C48.1211 49.2358 48.6887 49.4036 49.1429 49.157C49.5968 48.9103 49.7647 48.3424 49.5181 47.8885L47.2664 43.7461C47.6436 42.9809 48.0106 42.269 48.4849 41.7946C48.9966 41.283 49.7837 40.8964 50.6172 40.4871C51.8847 39.8647 53.1952 39.221 53.9208 37.967C54.6353 36.7323 54.5414 35.2859 54.4507 33.8871C54.3898 32.9496 54.3324 32.064 54.5246 31.345C54.7047 30.6714 55.1839 29.9578 55.6913 29.2021C56.4494 28.0731 57.3088 26.7935 57.3088 25.3092C57.3092 23.825 56.4498 22.5454 55.6917 21.4165ZM20.9958 62.0076L18.1407 57.8274C17.8261 57.3667 17.3053 57.0836 16.7476 57.0701L11.6867 56.9476L17.7963 45.7076C18.2017 46.3146 18.6887 46.8524 19.3423 47.2305C20.5772 47.9449 22.0237 47.8511 23.4221 47.7604C24.3597 47.6995 25.2453 47.6421 25.9642 47.8343C26.6288 48.0119 27.3326 48.481 28.0768 48.9808L20.9958 62.0076ZM54.1386 28.1591C53.5681 29.0087 52.9781 29.8872 52.7176 30.862C52.4459 31.878 52.5162 32.961 52.5842 34.0083C52.6602 35.18 52.7319 36.2868 52.3018 37.0301C51.8608 37.7923 50.8563 38.2856 49.7928 38.808C48.8591 39.2665 47.8936 39.7406 47.1624 40.4719C46.4312 41.203 45.9571 42.1686 45.4984 43.1024C44.9762 44.1659 44.4828 45.1702 43.7208 45.6113C42.9773 46.0414 41.8708 45.9695 40.6989 45.8936C39.6516 45.8256 38.5687 45.7555 37.5527 46.027C36.5781 46.2876 35.6996 46.8775 34.8499 47.4481C33.8546 48.1166 32.9144 48.748 31.9999 48.748C31.0856 48.748 30.1454 48.1166 29.1501 47.4481C28.3004 46.8776 27.4221 46.2876 26.4472 46.027C25.8894 45.8779 25.3117 45.8319 24.7306 45.8319C24.2531 45.8319 23.7733 45.863 23.3009 45.8937C22.1291 45.9696 21.0224 46.0416 20.2791 45.6114C19.5169 45.1704 19.0236 44.1659 18.5013 43.1024C18.0428 42.1686 17.5686 41.2031 16.8373 40.4719C16.1062 39.7407 15.1407 39.2665 14.2069 38.808C13.1434 38.2857 12.1389 37.7924 11.6979 37.0301C11.2678 36.2868 11.3396 35.18 11.4156 34.0084C11.4836 32.9611 11.5538 31.8781 11.2822 30.8621C11.0217 29.8874 10.4317 29.0088 9.86105 28.1593C9.19268 27.1639 8.5613 26.2238 8.5613 25.3094C8.5613 24.395 9.19268 23.4549 9.86105 22.4595C10.4317 21.6099 11.0216 20.7314 11.2822 19.7566C11.5538 18.7406 11.4836 17.6576 11.4156 16.6104C11.3396 15.4386 11.2678 14.3319 11.6979 13.5885C12.1389 12.8264 13.1434 12.333 14.2069 11.8106C15.1407 11.3521 16.1062 10.8779 16.8373 10.1468C17.5684 9.41563 18.0427 8.45 18.5013 7.51625C19.0236 6.45288 19.5169 5.44837 20.2791 5.00737C21.0224 4.57737 22.1291 4.64913 23.3009 4.725C24.3482 4.793 25.4311 4.86325 26.4472 4.59163C27.4218 4.331 28.3003 3.74113 29.1499 3.1705C30.1453 2.502 31.0854 1.87063 31.9999 1.87063C32.9143 1.87063 33.8544 2.502 34.8498 3.17038C35.6994 3.741 36.5779 4.331 37.5527 4.5915C38.5687 4.86312 39.6518 4.79287 40.6991 4.72487C41.8708 4.649 42.9776 4.57712 43.7208 5.00725C44.4829 5.44825 44.9763 6.45275 45.4986 7.51613C45.9571 8.44987 46.4313 9.41537 47.1626 10.1466C47.8937 10.8777 48.8593 11.352 49.7929 11.8105C50.8564 12.3328 51.8608 12.8261 52.3018 13.5883C52.7319 14.3316 52.6602 15.4384 52.5842 16.61C52.5162 17.6573 52.4459 18.7402 52.7176 19.7563C52.9781 20.731 53.5681 21.6096 54.1387 22.4591C54.8071 23.4545 55.4384 24.3946 55.4384 25.309C55.4384 26.2236 54.8071 27.1637 54.1386 28.1591Z" />
<path d="M44.8448 24.433C45.4768 23.8169 45.6999 22.9127 45.4271 22.0734C45.1544 21.234 44.4424 20.6336 43.569 20.5067L37.2255 19.585C37.085 19.5646 36.9636 19.4764 36.9009 19.3491L34.064 13.601C33.6734 12.8095 32.8824 12.3179 31.9999 12.3179C31.1174 12.3179 30.3264 12.8095 29.9358 13.601L27.0989 19.3491C27.0361 19.4764 26.9148 19.5646 26.7743 19.585L20.4309 20.5067C19.5575 20.6336 18.8454 21.2339 18.5726 22.0734C18.2999 22.9127 18.523 23.8169 19.1551 24.433L23.7453 28.9072C23.847 29.0064 23.8933 29.149 23.8693 29.2889L22.7856 35.6067C22.6364 36.4767 22.9874 37.3394 23.7014 37.8581C24.1049 38.1512 24.5769 38.3001 25.0521 38.3001C25.4179 38.3001 25.7856 38.2119 26.1255 38.0332L31.7991 35.0504C31.9249 34.9844 32.0749 34.9844 32.2004 35.0504L37.8741 38.0332C38.6553 38.4439 39.5841 38.3767 40.2983 37.8581C41.0124 37.3394 41.3633 36.4766 41.214 35.6067L40.1304 29.2889C40.1064 29.149 40.1528 29.0064 40.2543 28.9074L44.8448 24.433ZM38.2868 29.6051L39.3704 35.923C39.4113 36.1614 39.264 36.2972 39.1989 36.3446C39.1336 36.392 38.959 36.4899 38.7449 36.3774L33.071 33.3945C32.4003 33.0419 31.5995 33.042 30.9288 33.3945L25.255 36.3775C25.0411 36.49 24.8663 36.392 24.801 36.3446C24.7359 36.2972 24.5886 36.1614 24.6295 35.923L25.7131 29.6052C25.8413 28.8585 25.5939 28.0969 25.0511 27.5677L20.461 23.0935C20.2878 22.9246 20.327 22.7281 20.3519 22.6516C20.3768 22.575 20.4605 22.393 20.6999 22.3582L27.0434 21.4365C27.7933 21.3275 28.4411 20.8569 28.7765 20.1774L31.6134 14.4292C31.7204 14.2124 31.9194 14.189 32 14.189C32.0806 14.189 32.2795 14.2124 32.3866 14.4292L35.2235 20.1774C35.5589 20.8569 36.2068 21.3276 36.9566 21.4365L43.3001 22.3582C43.5395 22.393 43.6231 22.575 43.6481 22.6516C43.673 22.7282 43.7123 22.9247 43.5391 23.0935L38.9488 27.5679C38.406 28.0969 38.1586 28.8585 38.2868 29.6051Z" />
</g>
</svg>
