<svg width="24" height="24" viewBox="0 0 24 24"  xmlns="http://www.w3.org/2000/svg">
<g clip-path="url(#clip0)">
<path d="M7.87374 16.4284C8.86215 17.822 9.84897 19.0685 10.503 19.8712C10.5982 19.9881 10.6874 20.0964 10.7738 20.2008H8.80018C8.57926 20.2008 8.4002 20.3799 8.4002 20.6008C8.4002 20.8217 8.57926 21.0008 8.80018 21.0008H15.2001C15.4211 21.0008 15.6001 20.8217 15.6001 20.6008C15.6001 20.3799 15.4211 20.2008 15.2001 20.2008H13.2266C13.313 20.0964 13.4022 19.988 13.4978 19.8712C14.1514 19.0712 15.1378 17.822 16.1266 16.4284C17.1076 15.0735 17.9907 13.6503 18.769 12.1696C19.5858 10.5656 20.0002 9.23404 20.0002 8.21165C20.0029 6.08722 19.1599 4.04908 17.6574 2.5472C17.557 2.44314 17.4083 2.40133 17.2685 2.43784C17.1286 2.47436 17.0193 2.58348 16.9826 2.72331C16.9459 2.86314 16.9875 3.01188 17.0914 3.11238C18.4438 4.46445 19.2026 6.29919 19.2002 8.2116C19.2002 9.10682 18.8154 10.3164 18.0562 11.8064C17.2955 13.2527 16.4324 14.643 15.4738 15.9664C14.4986 17.342 13.5238 18.5744 12.8778 19.3664C12.663 19.6296 12.4698 19.8624 12.305 20.0593C12.2281 20.1471 12.117 20.1974 12.0002 20.1974C11.8834 20.1974 11.7724 20.1471 11.6954 20.0593C11.5306 19.8625 11.3374 19.6296 11.1226 19.3664C10.4766 18.5749 9.50181 17.3424 8.52662 15.9664C7.56798 14.643 6.70496 13.2527 5.94422 11.8064C5.18423 10.3164 4.80023 9.10682 4.80023 8.2116C4.8 5.31429 6.53269 2.69781 9.20026 1.56718C10.9927 0.815587 13.0119 0.815587 14.8043 1.56718C14.9359 1.62297 15.0873 1.60436 15.2014 1.51825C15.3156 1.43218 15.3751 1.29175 15.3576 1.14985C15.3401 1.00796 15.2483 0.886181 15.1167 0.8304C11.0433 -0.887669 6.34838 1.02081 4.62904 5.0936C4.21209 6.08014 3.99824 7.1406 4.00026 8.2116C4.00026 9.234 4.41468 10.5656 5.23148 12.1716C6.0097 13.6516 6.89279 15.0742 7.87374 16.4284Z" />
<path d="M12.0001 4.60075C12.221 4.60075 12.4001 4.42169 12.4001 4.20077C12.4001 3.97984 12.221 3.80078 12.0001 3.80078C10.0918 3.80073 8.44923 5.14877 8.0769 7.0204C7.70457 8.89204 8.70625 10.766 10.4693 11.4963C12.2323 12.2266 14.2657 11.6098 15.3259 10.0231C16.3861 8.43646 16.1779 6.32178 14.8285 4.97238C14.7281 4.86841 14.5794 4.82669 14.4395 4.8633C14.2997 4.89991 14.1905 5.00913 14.1538 5.14896C14.1172 5.28883 14.159 5.43752 14.2629 5.53798C15.3425 6.61746 15.5091 8.30914 14.661 9.57852C13.8129 10.8479 12.1862 11.3414 10.7757 10.7572C9.36531 10.1731 8.56394 8.67393 8.86169 7.17659C9.15944 5.67926 10.4735 4.6008 12.0001 4.60075Z" />
<path d="M23.8494 22.0292L21.3894 17.6292C21.167 17.2382 20.7508 16.9979 20.301 17.0008H17.4502C17.2293 17.0008 17.0502 17.1798 17.0502 17.4007C17.0502 17.6217 17.2293 17.8007 17.4502 17.8007H20.301C20.4611 17.7976 20.6105 17.8811 20.6918 18.0191L23.151 22.4191C23.218 22.5336 23.2166 22.6756 23.1474 22.7888C23.0657 22.9238 22.9179 23.0046 22.7602 23.0008H1.24016C1.08257 23.0045 0.935002 22.9236 0.853346 22.7888C0.784158 22.6756 0.782799 22.5336 0.849737 22.4191L3.30895 18.0191C3.39009 17.8812 3.53934 17.7977 3.69932 17.8007H6.55013C6.77105 17.8007 6.95011 17.6217 6.95011 17.4007C6.95011 17.1798 6.77105 17.0008 6.55013 17.0008H3.69937C3.24937 16.9978 2.83284 17.2381 2.61018 17.6292L0.150547 22.0292C-0.0545318 22.3914 -0.0497974 22.8358 0.162969 23.1936C0.387126 23.5746 0.798174 23.8063 1.24016 23.8008H22.7602C23.2021 23.8062 23.613 23.5745 23.837 23.1936C24.0498 22.8358 24.0545 22.3914 23.8494 22.0292Z" />
<path d="M19.6002 19.0007H18.0002C17.9213 19.0009 17.8441 19.0242 17.7782 19.068L16.5782 19.868C16.3944 19.9906 16.3448 20.239 16.4674 20.4228C16.59 20.6066 16.8384 20.6562 17.0222 20.5336L18.1202 19.8008H19.6002C19.8212 19.8008 20.0002 19.6217 20.0002 19.4008C20.0002 19.1798 19.8212 19.0007 19.6002 19.0007Z" />
<path d="M17.2002 21.8009C17.2002 22.0218 17.3793 22.2009 17.6002 22.2009H20.8002C21.0211 22.2009 21.2002 22.0218 21.2002 21.8009C21.2002 21.5799 21.0211 21.4009 20.8002 21.4009H17.6002C17.3793 21.4009 17.2002 21.5799 17.2002 21.8009Z" />
<path d="M7.2001 20.6008C7.37645 20.601 7.53212 20.4857 7.58336 20.3169C7.63459 20.1482 7.56925 19.9658 7.42253 19.868L6.22252 19.068C6.15662 19.0242 6.07922 19.0008 6.0001 19.0007H4.40011C4.17919 19.0007 4.00012 19.1798 4.00012 19.4007C4.00012 19.6216 4.17923 19.8007 4.40011 19.8007H5.8801L6.97932 20.5335C7.04471 20.5772 7.12154 20.6006 7.2001 20.6008Z" />
<path d="M3.20016 21.4009C2.97923 21.4009 2.80017 21.5799 2.80017 21.8009C2.80017 22.0218 2.97923 22.2009 3.20016 22.2009H6.40018C6.62111 22.2009 6.80017 22.0218 6.80017 21.8009C6.80017 21.5799 6.62111 21.4009 6.40018 21.4009H3.20016Z"/>
</g>
</svg>
