<svg width="24" height="24" viewBox="0 0 24 24" fill="none" xmlns="http://www.w3.org/2000/svg">
<path d="M20.2079 0H3.79213C1.70107 0 0 1.70107 0 3.79213V20.2079C0 22.2989 1.70107 24 3.79213 24H20.2079C22.2989 24 24 22.2989 24 20.2079V3.79213C24 1.70107 22.2989 0 20.2079 0ZM21.4719 20.2079C21.4719 20.9048 20.9048 21.4719 20.2079 21.4719H3.79213C3.0952 21.4719 2.5282 20.9048 2.5282 20.2079V3.79213C2.5282 3.0952 3.09527 2.5282 3.79213 2.5282H20.2079C20.9048 2.5282 21.4718 3.09527 21.4718 3.79213V20.2079H21.4719Z" fill="#E0E0E0"/>
<path d="M16.6563 7.10571C16.2485 7.10571 15.8653 7.26458 15.5769 7.55305L9.929 13.2102L8.42367 11.705C8.13547 11.4167 7.75227 11.2579 7.34467 11.2579C6.937 11.2579 6.5538 11.4167 6.26553 11.7049C5.97733 11.9931 5.81866 12.3763 5.81866 12.7839C5.81866 13.1915 5.97733 13.5747 6.26553 13.8628L8.8502 16.4475C9.1384 16.7358 9.5216 16.8946 9.92927 16.8946C10.3367 16.8946 10.7201 16.7357 11.0086 16.4472L17.7353 9.71084C18.3302 9.11578 18.3301 8.14765 17.7353 7.55258C17.4471 7.26445 17.0639 7.10571 16.6563 7.10571Z" fill="#FCB32A"/>
</svg>
