<svg width="64" height="64" viewBox="0 0 64 64" fill="none" xmlns="http://www.w3.org/2000/svg">
<path d="M58.5355 53.0337V53.0273C58.5515 52.9547 58.5579 52.8747 58.5707 52.8001H62.9333C63.5224 52.8001 64 52.3225 64 51.7334V43.2001C64 42.611 63.5224 42.1334 62.9333 42.1334H61.8667V32.5334C61.8663 32.3227 61.804 32.1169 61.6875 31.9414L53.1541 19.1414C52.9563 18.8447 52.6232 18.6667 52.2667 18.6667H42.6667V10.1334H43.7333C44.3224 10.1334 44.8 9.6558 44.8 9.06673V4.80007C44.8 4.211 44.3224 3.7334 43.7333 3.7334H1.06667C0.4776 3.7334 0 4.211 0 4.80007V9.06673C0 9.6558 0.4776 10.1334 1.06667 10.1334H2.13333V42.1334H1.06667C0.4776 42.1334 0 42.611 0 43.2001V51.7334C0 52.3225 0.4776 52.8001 1.06667 52.8001H9.69493C9.70667 52.8694 9.71307 52.9441 9.728 53.0134C10.3213 55.9373 12.8207 57.9878 15.6688 58.1334H1.06667C0.4776 58.1334 0 58.611 0 59.2001C0 59.7891 0.4776 60.2667 1.06667 60.2667H62.9333C63.5224 60.2667 64 59.7891 64 59.2001C64 58.611 63.5224 58.1334 62.9333 58.1334H52.6245C52.9277 58.1161 53.2333 58.0781 53.5397 58.0158C56.0527 57.5059 58.0187 55.5453 58.5355 53.0337ZM56.4469 52.5867C55.9763 54.8957 53.7229 56.3858 51.414 55.9151C49.7313 55.5721 48.4183 54.2537 48.0821 52.5697C48.0253 52.2946 47.9979 52.0143 48 51.7334C48 49.377 49.9103 47.4667 52.2667 47.4667C54.6231 47.4667 56.5333 49.377 56.5333 51.7334C56.5353 52.0201 56.5064 52.3062 56.4469 52.5867ZM51.696 20.8001L59.7333 32.8534V34.6667H45.8667C45.2776 34.6667 44.8 35.1443 44.8 35.7334C44.8 36.3225 45.2776 36.8001 45.8667 36.8001H59.7333V42.1334H42.6667V20.8001H51.696ZM2.13333 5.86673H42.6667V8.00006H2.13333V5.86673ZM40.5333 10.1334V42.1334H4.26667V10.1334H40.5333ZM11.0827 47.6449L11.0709 47.6587C10.856 47.9211 10.6619 48.2001 10.4907 48.4929C10.4693 48.5302 10.4448 48.5654 10.4235 48.5995C10.2635 48.8845 10.1261 49.1815 10.0128 49.4881C9.99253 49.5403 9.97333 49.5947 9.9552 49.6449C9.84653 49.9559 9.7628 50.2751 9.70453 50.5995C9.70453 50.623 9.69067 50.6433 9.6864 50.6667H2.13333V44.2667H61.8667V50.6667H58.5781C58.5781 50.6433 58.5643 50.623 58.56 50.5995C58.5017 50.2753 58.418 49.9559 58.3093 49.6449C58.2912 49.5915 58.272 49.5382 58.2517 49.4881C58.1384 49.1815 58.0011 48.8845 57.8411 48.5995C57.8197 48.5611 57.7952 48.5259 57.7739 48.4929C57.6027 48.2001 57.4085 47.9211 57.1936 47.6587L57.1819 47.6449C56.9641 47.3855 56.7257 47.1439 56.4693 46.9227C56.4427 46.8993 56.4181 46.8737 56.3904 46.8502C56.1403 46.6409 55.8747 46.4507 55.5957 46.2817L55.4571 46.1974C55.1773 46.0365 54.8861 45.8967 54.5856 45.7793L54.4277 45.7206C54.1151 45.6074 53.7941 45.5186 53.4677 45.455C53.4251 45.4465 53.3824 45.4422 53.3397 45.4347C52.6295 45.3053 51.9017 45.3053 51.1915 45.4347C51.1488 45.4422 51.1061 45.4465 51.0635 45.455C50.7371 45.5186 50.4161 45.6074 50.1035 45.7206L49.9456 45.7793C49.6451 45.8967 49.3539 46.0365 49.0741 46.1974L48.9355 46.2817C48.6565 46.4507 48.3909 46.6409 48.1408 46.8502C48.1131 46.8737 48.0885 46.8993 48.0619 46.9227C47.8055 47.1439 47.5671 47.3855 47.3493 47.6449L47.3376 47.6587C47.1227 47.9211 46.9285 48.2001 46.7573 48.4929C46.736 48.5302 46.7115 48.5654 46.6901 48.5995C46.5301 48.8845 46.3928 49.1815 46.2795 49.4881C46.2592 49.5403 46.24 49.5947 46.2219 49.6449C46.1132 49.9559 46.0295 50.2751 45.9712 50.5995C45.9712 50.623 45.9573 50.6433 45.9531 50.6667H22.3115C22.3115 50.6433 22.2976 50.623 22.2933 50.5995C22.2351 50.2753 22.1513 49.9559 22.0427 49.6449C22.0245 49.5915 22.0053 49.5382 21.9851 49.4881C21.8717 49.1815 21.7344 48.8845 21.5744 48.5995C21.5531 48.5611 21.5285 48.5259 21.5072 48.4929C21.336 48.2001 21.1419 47.9211 20.9269 47.6587L20.9152 47.6449C20.6975 47.3855 20.4591 47.1439 20.2027 46.9227C20.176 46.8993 20.1515 46.8737 20.1237 46.8502C19.8736 46.6409 19.608 46.4507 19.3291 46.2817L19.1904 46.1974C18.9107 46.0365 18.6195 45.8967 18.3189 45.7793L18.1611 45.7206C17.8484 45.6074 17.5275 45.5186 17.2011 45.455C17.1584 45.4465 17.1157 45.4422 17.0731 45.4347C16.3628 45.3053 15.6351 45.3053 14.9248 45.4347C14.8821 45.4422 14.8395 45.4465 14.7968 45.455C14.4704 45.5186 14.1495 45.6074 13.8368 45.7206L13.6789 45.7793C13.3784 45.8967 13.0872 46.0365 12.8075 46.1974L12.6688 46.2817C12.3899 46.4507 12.1243 46.6409 11.8741 46.8502C11.8464 46.8737 11.8219 46.8993 11.7952 46.9227C11.5388 47.1439 11.3004 47.3855 11.0827 47.6449ZM11.8155 52.5697C11.7587 52.2946 11.7312 52.0143 11.7333 51.7334C11.7345 49.377 13.6457 47.4677 16.0021 47.4689C18.3569 47.4699 20.2655 49.3786 20.2667 51.7334C20.2687 52.0201 20.2397 52.3062 20.1803 52.5867C19.7096 54.8957 17.4563 56.3858 15.1473 55.9151C13.4647 55.5721 12.1516 54.2537 11.8155 52.5697ZM16.3145 58.1334C16.632 58.1174 16.9521 58.0778 17.2731 58.0126C19.786 57.5026 21.752 55.5419 22.2688 53.0303C22.2848 52.9578 22.2912 52.8778 22.304 52.8031H45.9616C45.9733 52.8725 45.9797 52.9471 45.9947 53.0165C46.5849 55.9253 49.0617 57.9689 51.8915 58.1333H16.3145V58.1334Z" fill="#FCB32A"/>
<path d="M19.2001 51.7332C19.2001 49.9659 17.7674 48.5332 16 48.5332C14.2327 48.5332 12.8 49.9659 12.8 51.7332C12.8 53.5005 14.2327 54.9332 16 54.9332C17.7674 54.9332 19.2001 53.5005 19.2001 51.7332ZM16 52.7999C15.411 52.7999 14.9334 52.3223 14.9334 51.7332C14.9334 51.1441 15.411 50.6665 16 50.6665C16.5891 50.6665 17.0667 51.1441 17.0667 51.7332C17.0667 52.3223 16.5891 52.7999 16 52.7999Z" fill="#FCB32A"/>
<path d="M52.2667 48.5332C50.4993 48.5332 49.0667 49.9659 49.0667 51.7332C49.0667 53.5005 50.4993 54.9332 52.2667 54.9332C54.034 54.9332 55.4667 53.5005 55.4667 51.7332C55.4667 49.9659 54.034 48.5332 52.2667 48.5332ZM52.2667 52.7999C51.6776 52.7999 51.2 52.3223 51.2 51.7332C51.2 51.1441 51.6776 50.6665 52.2667 50.6665C52.8557 50.6665 53.3333 51.1441 53.3333 51.7332C53.3333 52.3223 52.8557 52.7999 52.2667 52.7999Z" fill="#FCB32A"/>
<path d="M45.8667 32.5336H55.4667C56.0558 32.5336 56.5334 32.0561 56.5335 31.4671C56.5335 31.2448 56.4642 31.0281 56.335 30.8472L51.0016 23.3805C50.8014 23.1 50.478 22.9336 50.1334 22.9336H45.8667C45.2776 22.9336 44.8 23.4112 44.8 24.0003V31.4669C44.8 32.056 45.2776 32.5336 45.8667 32.5336ZM46.9334 25.0669H49.584L53.3942 30.4003H46.9334V25.0669Z" fill="#FCB32A"/>
<path d="M22.4001 39.9999C30.0585 39.9999 36.2668 33.7917 36.2668 26.1333C36.258 18.4786 30.0548 12.2754 22.4001 12.2666C14.7417 12.2666 8.53345 18.4749 8.53345 26.1333C8.53345 33.7917 14.7417 39.9999 22.4001 39.9999ZM22.4001 14.3999C28.8802 14.3999 34.1334 19.6531 34.1334 26.1333C34.1258 32.6102 28.877 37.859 22.4001 37.8666C15.92 37.8666 10.6668 32.6134 10.6668 26.1333C10.6668 19.6531 15.92 14.3999 22.4001 14.3999Z" fill="#FCB32A"/>
<path d="M14.9868 27.6959L19.5126 32.2207C19.9292 32.6371 20.6044 32.6371 21.0209 32.2207L30.0716 23.17C30.4808 22.7462 30.469 22.0709 30.0453 21.6617C29.632 21.2625 28.9766 21.2625 28.5633 21.6617L20.2668 29.9583L16.495 26.1876C16.0858 25.7638 15.4105 25.7521 14.9868 26.1613C14.563 26.5705 14.5513 27.2459 14.9605 27.6696C14.9692 27.6785 14.9778 27.6873 14.9868 27.6959Z" fill="#FCB32A"/>
</svg>
