<svg width="30" height="30" viewBox="0 0 30 30" fill="none" xmlns="http://www.w3.org/2000/svg">
<g clip-path="url(#clip0)">
<path d="M21.7428 6.74308V21.3285C21.7428 21.647 21.4848 21.9053 21.166 21.9053C20.8472 21.9053 20.5889 21.647 20.5889 21.3285V6.74308C20.5889 3.66086 18.0819 1.15388 15.0002 1.15388C11.9184 1.15388 9.41132 3.66128 9.41132 6.74308V7.69589V12.6935V24.424C9.41132 26.8625 11.3951 28.8469 13.8334 28.8469C16.2724 28.8469 18.2561 26.8632 18.2561 24.424V14.6966V9.50243C18.2561 7.91191 16.9623 6.61818 15.372 6.61818C13.781 6.61818 12.4877 7.91197 12.4877 9.50243V22.4619C12.4877 22.7803 12.2297 23.0386 11.9108 23.0386C11.592 23.0386 11.334 22.7803 11.334 22.4619V9.50249C11.334 7.27628 13.1455 5.46454 15.372 5.46454C17.5984 5.46454 19.4099 7.27628 19.4099 9.50249V14.6967V24.4241V24.8853C19.4099 24.9669 19.393 25.0436 19.3626 25.1136C19.0212 27.8634 16.6739 30.0001 13.8331 30.0001C10.7585 30.0001 8.25732 27.4987 8.25732 24.4241V12.6932V7.69553V6.74272C8.25762 3.02518 11.2822 0 15.0002 0C18.7179 0 21.7428 3.02518 21.7428 6.74308Z" fill="#535353"/>
</g>
<defs>
<clipPath id="clip0">
<rect width="30" height="30" fill="white"/>
</clipPath>
</defs>
</svg>
