<svg width="48" height="48" viewBox="0 0 48 48" fill="none" xmlns="http://www.w3.org/2000/svg">
<g clip-path="url(#clip0)">
<path d="M21.4001 47.928C23.118 48.3168 24.8272 47.2441 25.2241 45.528C27.3921 35.784 26.1761 28.664 24.7841 24.408C24.4505 23.3698 24.4338 22.2558 24.7361 21.208C24.9601 20.408 25.2721 19.776 24.7361 19.024C24.2001 18.272 23.5121 18.344 22.6401 18.36L20.8401 13.56C21.5921 9.792 21.6881 9.704 21.4801 9.144L18.5441 1.056C18.315 0.422484 17.7137 0.000286616 17.0401 0H16.8001C15.9164 0 15.2001 0.716344 15.2001 1.6V8.112C14.6776 7.96 14.1226 7.96 13.6001 8.112V1.6C13.6001 0.716344 12.8837 0 12.0001 0H11.7601C11.0864 0.000286616 10.4851 0.422484 10.2561 1.056C7.11206 9.696 7.13606 9.36 7.25606 9.976L8.00006 13.536L6.20006 18.336C5.32006 18.336 4.60006 18.264 4.10406 18.992C3.60806 19.72 3.87206 20.368 4.10406 21.176C4.40634 22.2237 4.38963 23.3378 4.05606 24.376C2.66406 28.632 1.44806 35.752 3.61606 45.496C4.00045 47.2213 5.71072 48.3084 7.43606 47.924C9.1614 47.5396 10.2485 45.8293 9.86406 44.104C8.70879 39.3107 8.54004 34.3326 9.36806 29.472C9.54968 28.401 10.0389 27.4059 10.7761 26.608C11.8527 25.477 12.4292 23.9606 12.3761 22.4C12.3954 21.473 12.0272 20.5799 11.3601 19.936C11.2477 19.8309 11.1273 19.7346 11.0001 19.648L11.8001 17.6H17.1121L17.9121 19.64C17.7866 19.7319 17.6664 19.8307 17.5521 19.936C16.8702 20.573 16.4871 21.4669 16.4961 22.4C16.4429 23.9606 17.0195 25.477 18.0961 26.608C18.8346 27.4081 19.3239 28.4061 19.5041 29.48C20.3319 34.3379 20.1631 39.3134 19.0081 44.104C18.6188 45.8195 19.6872 47.5275 21.4001 47.928ZM16.0001 11.2C16.0001 12.0837 15.2837 12.8 14.4001 12.8C13.5164 12.8 12.8001 12.0837 12.8001 11.2C12.8001 10.3163 13.5164 9.6 14.4001 9.6C15.2837 9.6 16.0001 10.3163 16.0001 11.2ZM9.60006 25.496C8.63748 26.5167 7.99983 27.8003 7.76806 29.184C6.89847 34.2562 7.06995 39.4522 8.27206 44.456C8.46205 45.3198 7.91584 46.174 7.05206 46.364C6.18829 46.554 5.33405 46.0078 5.14406 45.144C3.04806 35.76 4.20006 28.944 5.53606 24.88C6.03796 23.26 5.97877 21.5182 5.36806 19.936C7.52806 19.896 10.7041 20.232 10.7041 22.4C10.7628 23.5378 10.3655 24.6521 9.60006 25.496ZM18.5441 17.008C18.3015 16.3988 17.7118 15.9994 17.0561 16H11.7441C11.0884 15.9994 10.4987 16.3988 10.2561 17.008L9.50406 18.888C8.95949 18.6949 8.39654 18.5582 7.82406 18.48L9.47206 14.096C9.68006 13.52 9.60006 13.496 8.83206 9.664L11.7601 1.6H12.0001V9.104C10.8655 10.3905 10.9471 12.3428 12.1851 13.5301C13.4231 14.7174 15.3771 14.7174 16.6151 13.5301C17.853 12.3428 17.9347 10.3905 16.8001 9.104V1.6H17.0401L20.0001 9.664C19.2401 13.496 19.1521 13.52 19.3601 14.096L21.0081 18.48C20.4356 18.5582 19.8726 18.6949 19.3281 18.888L18.5441 17.008ZM19.2001 25.496C18.4347 24.6521 18.0373 23.5378 18.0961 22.4C18.0961 20.232 21.2961 19.888 23.4321 19.936C22.8176 21.5174 22.7584 23.2606 23.2641 24.88C24.6001 28.944 25.7521 35.76 23.6641 45.144C23.4741 46.0078 22.6198 46.554 21.7561 46.364C20.8923 46.174 20.3461 45.3198 20.5361 44.456C21.7366 39.4522 21.9108 34.257 21.0481 29.184C20.8077 27.7999 20.1649 26.5172 19.2001 25.496Z" fill="#FCB32A"/>
<path d="M35.008 8.80002C34.896 8.80002 33.064 9.33602 31.984 12.04C31.3251 10.1174 30.0729 8.45355 28.408 7.28802C28.161 7.10841 27.8333 7.08506 27.5634 7.22784C27.2935 7.37062 27.1284 7.65461 27.1378 7.95983C27.1473 8.26505 27.3297 8.53826 27.608 8.66402C27.608 8.66402 30.864 10.728 31.2 16C30.3163 16 29.6 16.7164 29.6 17.6V46.4C29.6 47.2837 30.3163 48 31.2 48H32.8C33.6836 48 34.4 47.2837 34.4 46.4V17.6C34.4 16.7164 33.6836 16 32.8 16C33.024 11.16 35.256 10.4 35.384 10.4C35.6612 10.3286 35.8793 10.1146 35.956 9.83881C36.0328 9.56299 35.9565 9.26718 35.756 9.06281C35.5555 8.85845 35.2612 8.77657 34.984 8.84802L35.008 8.80002ZM32.8 46.4H31.2V17.6H32.8V46.4Z" fill="#FCB32A"/>
<path d="M38.0081 7.31207C37.7611 7.13246 37.4334 7.10911 37.1635 7.25189C36.8936 7.39466 36.7285 7.67865 36.7379 7.98388C36.7474 8.2891 36.9298 8.5623 37.2081 8.68807C37.2081 8.68807 40.4641 10.7281 40.8001 16.0001C39.9164 16.0001 39.2001 16.7164 39.2001 17.6001V46.4001C39.2001 47.2837 39.9164 48.0001 40.8001 48.0001H42.4001C43.2837 48.0001 44.0001 47.2837 44.0001 46.4001V17.6001C44.0001 16.7164 43.2837 16.0001 42.4001 16.0001C42.6241 11.1601 44.8561 10.4001 44.9841 10.4001C45.4127 10.2896 45.6705 9.85264 45.5601 9.42407C45.4496 8.99549 45.0127 8.73761 44.5841 8.84807C44.4721 8.84807 42.6401 9.38407 41.5601 12.0881C40.912 10.16 39.6682 8.48755 38.0081 7.31207ZM42.4001 46.4001H40.8001V17.6001H42.4001V46.4001Z" fill="#FCB32A"/>
</g>
<defs>
<clipPath id="clip0">
<rect width="48" height="48" fill="white"/>
</clipPath>
</defs>
</svg>
