<svg width="48" height="48" viewBox="0 0 48 48" fill="none" xmlns="http://www.w3.org/2000/svg">
<g clip-path="url(#clip0)">
<path d="M18.7906 6.8935H22.4036C22.792 6.8935 23.1068 6.57859 23.1068 6.19028C23.1068 5.80197 22.792 5.48706 22.4036 5.48706H18.7906C18.4022 5.48706 18.0874 5.80197 18.0874 6.19028C18.0874 6.57859 18.4022 6.8935 18.7906 6.8935Z" fill="#FCB32A"/>
<path d="M9.21909 9.91193H31.9752C32.3636 9.91193 32.6784 9.59702 32.6784 9.20871C32.6784 8.82031 32.3636 8.50549 31.9752 8.50549H9.21909C8.83068 8.50549 8.51587 8.82031 8.51587 9.20871C8.51578 9.59702 8.83068 9.91193 9.21909 9.91193Z" fill="#FCB32A"/>
<path d="M32.6784 12.227C32.6784 11.8386 32.3636 11.5238 31.9752 11.5238H9.21909C8.83068 11.5238 8.51587 11.8387 8.51587 12.227C8.51587 12.6153 8.83078 12.9302 9.21909 12.9302H31.9752C32.3636 12.9302 32.6784 12.6154 32.6784 12.227Z" fill="#FCB32A"/>
<path d="M45.5857 39.4043C45.9742 39.4043 46.289 39.0893 46.289 38.701V36.7899C46.289 36.0643 45.8314 35.4451 45.1903 35.2011V30.7131C45.1903 27.416 42.688 24.6934 39.483 24.3419V20.7839C39.483 19.8177 38.697 19.0318 37.7308 19.0318H37.2328V1.36425C37.2329 0.612 36.6209 0 35.8687 0H5.32538C4.57313 0 3.96112 0.612 3.96112 1.36425V15.2525H3.46312C2.49694 15.2525 1.71094 16.0385 1.71094 17.0047V46.2479C1.71094 47.2141 2.49694 48 3.46312 48H44.588C45.5259 48 46.2891 47.2369 46.2891 46.2989V41.9674C46.2891 41.579 45.9743 41.2642 45.5858 41.2642C45.1974 41.2642 44.8826 41.579 44.8826 41.9674V46.2989C44.8826 46.4614 44.7505 46.5935 44.5881 46.5935H32.9717C32.8092 46.5935 32.6771 46.4614 32.6771 46.2989V36.7898C32.6771 36.6274 32.8092 36.4953 32.9717 36.4953H44.588C44.7504 36.4953 44.8825 36.6274 44.8825 36.7898V38.7009C44.8825 39.0893 45.1973 39.4043 45.5857 39.4043ZM32.3693 30.713V35.201C31.7282 35.4449 31.2706 36.0641 31.2706 36.7898V46.2989C31.2706 46.3995 31.2811 46.4976 31.2979 46.5935H3.46312C3.27253 46.5935 3.11747 46.4384 3.11747 46.2478V17.0047C3.11747 16.8141 3.27253 16.659 3.46312 16.659H10.3453C10.4554 16.659 10.5596 16.7121 10.6246 16.801L12.7523 19.7184C13.0809 20.1692 13.6102 20.4382 14.168 20.4382H17.4878C17.8762 20.4382 18.1911 20.1233 18.1911 19.735C18.1911 19.3467 17.8762 19.0318 17.4878 19.0318H14.168C14.0579 19.0318 13.9537 18.9788 13.8887 18.8898L11.7609 15.9724C11.4323 15.5216 10.9031 15.2526 10.3453 15.2526H5.36766V1.40653H35.8265V19.0318H20.5971C20.2087 19.0318 19.8938 19.3467 19.8938 19.735C19.8938 20.1233 20.2087 20.4382 20.5971 20.4382H37.7309C37.9216 20.4382 38.0766 20.5933 38.0766 20.7839V24.3419C34.8715 24.6933 32.3693 27.416 32.3693 30.713ZM38.0766 35.0887H36.216V30.713C36.216 29.5432 37.0038 28.5546 38.0766 28.248V35.0887ZM41.3437 35.0887H39.4831V28.248C40.5559 28.5546 41.3437 29.5432 41.3437 30.713V35.0887ZM43.7839 35.0887H42.7502V30.713C42.7502 28.5237 40.9691 26.7427 38.7799 26.7427C36.5906 26.7427 34.8096 28.5238 34.8096 30.713V35.0887H33.7759V30.713C33.7759 27.9538 36.0207 25.709 38.78 25.709C41.5392 25.709 43.7841 27.9538 43.7841 30.713V35.0887H43.7839Z" fill="#FCB32A"/>
<path d="M38.1154 40.3275V42.6591C38.1154 43.0475 38.4302 43.3624 38.8186 43.3624C39.207 43.3624 39.5218 43.0475 39.5218 42.6591V40.3275C39.5218 39.9391 39.207 39.6243 38.8186 39.6243C38.4302 39.6243 38.1154 39.9391 38.1154 40.3275Z" fill="#FCB32A"/>
</g>
<defs>
<clipPath id="clip0">
<rect width="48" height="48" fill="white"/>
</clipPath>
</defs>
</svg>
