<svg width="56" height="48" viewBox="0 0 56 48" fill="none" xmlns="http://www.w3.org/2000/svg">
<path d="M0.141624 24.0064C0.20982 25.1544 0.971342 26.1205 2.07384 26.4501L22.4872 32.6218L23.2373 46.6929C23.2714 47.2499 23.6465 47.7386 24.1807 47.9205C24.3285 47.9773 24.4876 48 24.6354 48C25.0332 48 25.4083 47.8409 25.681 47.534L32.8985 39.5437L43.1279 46.6247C43.5825 46.943 44.1167 47.1135 44.6736 47.1135C45.958 47.1135 47.0719 46.2042 47.3446 44.9312L55.835 1.66082C55.9373 1.16072 55.7441 0.637884 55.3577 0.319636C54.9599 -0.00997781 54.4257 -0.08954 53.9483 0.103682L1.77833 21.3354C0.72129 21.8128 0.0734275 22.8584 0.141624 24.0064ZM25.8288 43.2036L25.3628 34.3267L30.5912 37.9411L25.8288 43.2036ZM44.6282 44.2833L26.0107 31.3943L52.1184 6.13903L44.6282 44.2833ZM49.2541 5.02516L23.4419 29.9963L3.05132 23.8359L49.2541 5.02516Z" fill="white"/>
</svg>
