<svg width="60" height="55" viewBox="0 0 60 55" fill="none" xmlns="http://www.w3.org/2000/svg">
<path d="M58 9.11316V19.3132L57.8657 20.1184L57.5971 20.9237L57.3285 21.5947L56.6571 22.4L55.9856 22.8026L55.0456 23.2053L54.3741 23.4737L53.4341 23.6079L52.3597 23.4737L50.4796 22.9368L49.6739 22.4L49.0024 21.7289L48.5995 20.9237L48.3309 20.2526L48.1966 19.3132V9.11316L49.0024 8.44211L49.9424 8.03947L50.8825 7.90526L51.9568 8.03947L52.7626 8.44211L53.4341 9.11316V17.9711M2 37.7L19.1894 21.1921L38.259 41.9947M53.5683 38.6395L42.0192 28.0368L33.1559 36.6263M51.9568 2H3.61151L2.80576 2.67105L2.13429 3.74474V51.2553L2.80576 52.3289L3.61151 53H51.9568L53.1655 52.3289L53.5683 51.2553V28.9763" stroke="white" stroke-width="3" stroke-linecap="round" stroke-linejoin="round"/>
</svg>
