<?xml version="1.0" standalone="no"?>
<!DOCTYPE svg PUBLIC "-//W3C//DTD SVG 20010904//EN"
 "http://www.w3.org/TR/2001/REC-SVG-20010904/DTD/svg10.dtd">
<svg version="1.0" xmlns="http://www.w3.org/2000/svg"
 width="700.000000pt" height="700.000000pt" viewBox="0 0 700.000000 700.000000"
 preserveAspectRatio="xMidYMid meet">
<metadata>
Created by potrace 1.14, written by Peter Selinger 2001-2017
</metadata>
<g transform="translate(0.000000,700.000000) scale(0.100000,-0.100000)"
fill="#000000" stroke="none">
<path d="M4110 6938 c0 -5 -26 -80 -95 -273 -26 -71 -62 -173 -80 -225 -18
-52 -63 -178 -100 -280 -36 -102 -82 -230 -102 -285 -32 -93 -238 -669 -340
-955 -25 -69 -63 -177 -84 -240 -22 -63 -46 -131 -54 -150 -8 -19 -42 -114
-76 -210 -103 -293 -121 -344 -135 -377 -8 -17 -14 -34 -14 -38 0 -7 -71 -213
-90 -260 -9 -23 -42 -116 -125 -350 -31 -88 -65 -182 -75 -210 -59 -160 -138
-390 -135 -393 3 -4 28 9 345 181 102 55 219 118 260 140 41 22 106 57 143 79
38 21 72 36 76 33 4 -2 -2 -60 -15 -127 -12 -68 -25 -139 -28 -158 -3 -19 -22
-125 -41 -235 -20 -110 -47 -261 -60 -335 -13 -74 -40 -223 -59 -330 -19 -107
-37 -211 -40 -230 -4 -19 -9 -46 -11 -60 -3 -14 -7 -38 -10 -55 -2 -16 -11
-66 -19 -110 -22 -113 -23 -121 -36 -205 -7 -41 -14 -84 -17 -95 -2 -11 -28
-157 -58 -325 -30 -168 -64 -354 -75 -414 -11 -59 -17 -112 -15 -116 3 -5 1
-11 -5 -15 -5 -3 -10 -21 -10 -38 0 -18 -4 -48 -9 -67 -6 -19 -12 -53 -16 -74
-3 -21 -8 -51 -12 -65 -3 -14 -2 -23 2 -19 8 8 19 35 69 183 15 44 31 89 36
100 4 11 25 67 45 125 20 58 54 152 75 210 36 100 60 168 250 705 45 127 92
259 105 295 13 36 87 245 165 465 78 220 153 432 167 470 66 186 484 1362 548
1545 18 52 37 104 41 114 6 17 -1 15 -52 -14 -279 -158 -596 -337 -676 -383
-105 -59 -104 -60 -89 20 17 86 31 165 61 343 17 96 35 195 40 220 6 25 12 61
14 80 3 19 11 71 20 115 8 44 17 94 20 110 2 17 12 71 21 120 9 50 18 104 20
120 2 17 9 50 14 75 5 25 19 101 31 170 11 69 25 145 30 170 8 38 59 326 75
425 3 17 8 41 10 55 3 14 8 39 11 55 2 17 15 91 29 165 13 74 26 149 29 165 3
17 24 136 47 265 23 129 43 244 44 255 1 11 8 46 14 78 7 32 10 61 7 64 -3 4
-6 4 -6 1z"/>
<path d="M3297 6114 c-1 -1 -31 -5 -67 -8 -321 -33 -617 -119 -904 -263 -751
-376 -1281 -1096 -1416 -1923 -38 -229 -44 -560 -15 -760 13 -87 30 -176 47
-250 11 -47 21 -92 23 -100 2 -8 18 -60 35 -115 88 -273 228 -543 409 -785 81
-108 100 -130 251 -280 290 -289 631 -499 1024 -630 102 -34 114 -33 117 10 0
8 2 22 4 30 1 8 5 31 9 50 3 19 8 47 11 63 3 15 9 53 15 85 5 31 12 73 16 92
13 71 13 71 -46 90 -75 24 -201 75 -261 106 l-50 25 19 32 c11 18 41 70 68
117 27 47 54 92 59 101 6 9 18 30 27 47 l18 31 -86 50 c-47 28 -89 51 -92 51
-4 0 -48 -71 -98 -158 -51 -86 -97 -157 -103 -157 -5 0 -20 7 -32 15 -154 108
-296 233 -406 355 -70 78 -99 115 -176 221 l-37 52 37 23 c21 13 43 26 48 28
36 14 245 143 242 149 -59 104 -100 172 -104 172 -3 0 -44 -23 -92 -51 -196
-117 -218 -129 -229 -129 -24 0 -133 268 -177 436 -36 140 -63 306 -69 429 -1
19 6 20 190 23 l191 2 0 105 0 105 -101 1 c-55 0 -142 0 -192 -1 l-91 -1 3 28
c2 15 6 57 9 93 3 36 10 90 15 120 5 30 12 70 15 89 10 56 65 250 95 331 32
87 97 230 104 230 7 0 73 -37 216 -120 l116 -67 52 90 c29 49 51 91 50 92 -7
6 -210 125 -214 125 -3 0 -98 56 -112 66 -5 3 87 134 137 194 91 109 211 232
291 297 19 15 44 36 55 46 46 42 167 119 175 111 4 -5 17 -25 28 -44 103 -184
156 -270 166 -270 6 0 48 22 93 48 l82 48 -70 124 c-39 69 -78 136 -88 150
-39 56 -38 58 63 105 215 101 466 166 731 191 33 3 63 8 66 12 8 10 149 408
149 422 0 8 -35 10 -121 8 -66 -2 -121 -4 -122 -4z"/>
<path d="M4214 6002 c-1 -9 -4 -33 -7 -52 -43 -234 -63 -361 -58 -364 3 -2 24
-9 46 -16 49 -15 137 -51 227 -92 l66 -30 -70 -122 c-39 -66 -79 -135 -89
-152 l-19 -32 77 -45 c43 -25 85 -48 93 -51 15 -6 27 12 101 143 32 58 82 145
86 150 5 7 132 -81 208 -143 150 -123 288 -270 398 -423 38 -52 67 -96 65 -97
-2 -2 -75 -45 -163 -95 -88 -51 -161 -94 -163 -96 -1 -1 18 -37 43 -79 25 -42
45 -81 45 -86 0 -21 33 -7 184 81 90 52 161 88 166 83 14 -14 96 -212 129
-310 50 -151 84 -317 96 -465 4 -46 8 -88 9 -94 1 -13 4 -12 -205 -14 l-177
-1 1 -105 0 -105 193 0 193 0 -4 -22 c-2 -13 -6 -55 -10 -95 -3 -39 -8 -82
-10 -95 -2 -13 -6 -39 -9 -59 -3 -20 -8 -42 -10 -50 -3 -8 -7 -25 -10 -39 -26
-153 -166 -530 -196 -530 -9 0 -102 52 -247 138 -29 17 -59 32 -68 34 -15 3
-35 -25 -95 -134 l-20 -37 73 -42 c39 -23 114 -66 165 -96 l93 -55 -38 -51
c-158 -221 -344 -409 -546 -551 -55 -40 -70 -46 -82 -36 -8 7 -15 17 -15 22 0
6 -8 22 -19 36 -10 15 -31 50 -46 77 -78 141 -100 175 -115 169 -8 -3 -50 -26
-93 -51 l-77 -45 18 -32 c11 -17 45 -76 77 -131 32 -55 66 -114 77 -132 l19
-32 -52 -27 c-118 -59 -367 -144 -493 -168 -11 -2 -32 -7 -46 -10 -35 -8 -69
-13 -136 -21 -126 -13 -149 -16 -153 -20 -6 -6 -151 -417 -151 -428 0 -9 283
-3 311 8 8 2 37 7 64 9 28 3 75 10 105 16 30 6 69 13 85 16 126 22 349 92 505
159 625 267 1139 795 1394 1428 31 77 92 255 101 297 72 311 87 429 88 685 0
209 -16 365 -60 560 -13 61 -26 117 -28 126 -11 51 -91 275 -131 366 -200 463
-553 877 -984 1156 -166 107 -390 216 -565 274 -130 44 -141 46 -141 25z"/>
</g>
</svg>
