<svg width="16" height="17" viewBox="0 0 16 17" fill="none" xmlns="http://www.w3.org/2000/svg">
<g clip-path="url(#clip0)">
<path d="M15.5425 2.85827C15.3071 2.62248 14.9252 2.62208 14.6899 2.85727L7.45571 10.0723L4.84564 7.23755C4.62011 6.99273 4.2388 6.97686 3.99358 7.20236C3.74855 7.42789 3.73286 7.80939 3.95839 8.05442L6.99358 11.3507C7.10474 11.4715 7.2603 11.5417 7.42433 11.5451C7.42874 11.5453 7.43299 11.5453 7.43721 11.5453C7.59661 11.5453 7.74996 11.482 7.86293 11.3694L15.5413 3.71111C15.7773 3.47595 15.7777 3.09405 15.5425 2.85827Z" fill="#FCB32A"/>
<path d="M15.397 8.06787C15.0639 8.06787 14.794 8.3378 14.794 8.6709C14.794 12.4172 11.7463 15.4649 8 15.4649C4.25387 15.4649 1.20603 12.4172 1.20603 8.6709C1.20603 4.92477 4.25387 1.87693 8 1.87693C8.33306 1.87693 8.60303 1.60699 8.60303 1.27393C8.60303 0.940836 8.33306 0.670898 8 0.670898C3.58875 0.670898 0 4.25965 0 8.6709C0 13.082 3.58875 16.6709 8 16.6709C12.4111 16.6709 16 13.082 16 8.6709C16 8.33784 15.7301 8.06787 15.397 8.06787Z" fill="#FCB32A"/>
</g>
<defs>
<clipPath id="clip0">
<rect width="16" height="16" fill="white" transform="translate(0 0.670898)"/>
</clipPath>
</defs>
</svg>
