<svg width="24" height="24" viewBox="0 0 24 24" fill="none" xmlns="http://www.w3.org/2000/svg">
<g clip-path="url(#clip0)">
<path d="M23.9526 9.79077C23.4339 4.23993 18.7734 -0.00265232 13.1984 0.000863087C7.99806 -0.0246354 3.52885 3.68441 2.59544 8.80036C2.4919 8.82333 2.39257 8.86233 2.30103 8.91595L1.03914 9.67429C0.609041 9.92778 0.293685 10.3379 0.159209 10.8186C-0.309184 12.5157 0.0316231 15.4339 4.29816 19.7005C7.68435 23.0867 10.2214 23.9994 11.9725 23.9994C12.3803 24.0013 12.7864 23.9481 13.18 23.8414C13.6609 23.7071 14.0711 23.3917 14.3244 22.9615L15.0843 21.6979C15.1373 21.6063 15.1758 21.507 15.1983 21.4035C20.6775 20.3742 24.4713 15.3416 23.9526 9.79077ZM14.3963 21.286L13.6384 22.5495C13.4903 22.8028 13.2501 22.989 12.968 23.0695C10.8582 23.6474 7.9803 22.2507 4.8633 19.1337C1.7463 16.0167 0.349182 13.1401 0.92796 11.0306C1.0083 10.7484 1.19457 10.5082 1.44791 10.3602L2.71262 9.60028C2.81803 9.537 2.95462 9.56785 3.02258 9.67026L5.03888 12.6937C5.10535 12.7939 5.0836 12.9283 4.98887 13.0024L3.85733 13.8824C3.45437 14.1915 3.33953 14.7496 3.58777 15.1927L3.67696 15.3563C4.24515 16.3989 4.98259 17.34 5.85924 18.1409C6.66028 19.018 7.60176 19.7556 8.64509 20.3236L8.8075 20.4123C9.25044 20.6615 9.8092 20.5465 10.1178 20.1428L10.9977 19.0117C11.0721 18.9169 11.2067 18.895 11.3073 18.9613L14.3288 20.9759C14.4305 21.0446 14.4603 21.1812 14.3963 21.286ZM15.0659 20.6144C14.9896 20.4939 14.8891 20.3905 14.7707 20.3109L11.7484 18.2958C11.2988 17.9992 10.6969 18.0972 10.3645 18.5209L9.48461 19.6521C9.41684 19.742 9.29323 19.7684 9.19462 19.7141L9.0262 19.6217C8.05075 19.0891 7.17086 18.3977 6.42278 17.5758C5.60111 16.8281 4.90984 15.9486 4.37733 14.9736L4.28452 14.804C4.23024 14.7055 4.25668 14.582 4.34653 14.5144L5.47765 13.6345C5.90222 13.3025 6.00009 12.6998 5.70245 12.2506L3.68817 9.22798C3.60839 9.10958 3.50485 9.00908 3.3842 8.93278C4.3448 3.86411 9.00535 0.359529 14.1414 0.843578C19.2775 1.32767 23.2011 5.64137 23.1978 10.8002C23.2216 15.6093 19.7956 19.7441 15.0659 20.6144Z" fill="white"/>
<path d="M13.5984 2.40094C13.5984 2.18003 13.4193 2.00098 13.1984 2.00098C9.6629 2.00698 6.47246 4.12307 5.0917 7.37787C5.05031 7.4756 5.04951 7.58579 5.0894 7.68413C5.12929 7.78247 5.20667 7.86093 5.30445 7.90223C5.35362 7.92332 5.40654 7.9342 5.46002 7.93424C5.62065 7.93429 5.76577 7.8382 5.82839 7.69027C7.07884 4.72716 9.9822 2.80104 13.1983 2.80099C13.4193 2.80094 13.5984 2.62185 13.5984 2.40094Z" fill="white"/>
<path d="M16.3086 18.1701C16.1769 18.2258 16.0851 18.3475 16.0675 18.4894C16.05 18.6312 16.1094 18.7716 16.2235 18.8577C16.3376 18.9438 16.4889 18.9626 16.6205 18.9068C19.8795 17.5311 21.9978 14.3375 21.9978 10.8001C21.9978 10.5792 21.8188 10.4001 21.5979 10.4001C21.3769 10.4001 21.1979 10.5792 21.1979 10.8001C21.1923 14.0146 19.268 16.9152 16.3086 18.1701Z" fill="white"/>
<path d="M16.5983 14.6001C16.76 14.6 16.9058 14.5026 16.9677 14.3532C17.0296 14.2037 16.9954 14.0317 16.8811 13.9173L15.1524 12.1886C15.4424 11.7838 15.5983 11.2983 15.5984 10.8003C15.5984 10.5794 15.4193 10.4004 15.1984 10.4004C14.9775 10.4004 14.7984 10.5794 14.7984 10.8003C14.7984 11.6839 14.0821 12.4002 13.1985 12.4002C12.315 12.4002 11.5987 11.6839 11.5987 10.8003C11.5987 9.91675 12.315 9.20045 13.1985 9.20045C13.4195 9.20045 13.5985 9.0214 13.5985 8.80049V4.40069C13.5985 4.17978 13.4195 4.00073 13.1985 4.00073C12.9776 4.00073 12.7986 4.17983 12.7986 4.40069V8.43367C11.8227 8.59547 11.046 9.33952 10.8426 10.3076C10.6391 11.2756 11.0505 12.2694 11.8787 12.8104C12.7069 13.3514 13.7822 13.3288 14.5869 12.7534L16.3156 14.4821C16.3903 14.5574 16.4921 14.5998 16.5983 14.6001Z" fill="white"/>
<path d="M13.3504 10.4324C13.2014 10.3698 13.0294 10.4029 12.9144 10.5164C12.8791 10.5553 12.8507 10.5999 12.8304 10.6484C12.8099 10.6965 12.7991 10.7481 12.7984 10.8004C12.7991 10.8259 12.8018 10.8513 12.8064 10.8764C12.8101 10.9029 12.8182 10.9285 12.8304 10.9524C12.8384 10.9769 12.8506 10.9999 12.8664 11.0204C12.8824 11.0444 12.8984 11.0644 12.9144 11.0843C12.991 11.1574 13.0925 11.1989 13.1984 11.2004C13.2507 11.1997 13.3023 11.1889 13.3504 11.1683C13.3988 11.148 13.4435 11.1195 13.4824 11.0843C13.4984 11.0643 13.5144 11.0444 13.5304 11.0204C13.559 10.9765 13.5792 10.9277 13.59 10.8764C13.5949 10.8513 13.5978 10.8259 13.5984 10.8004C13.5978 10.7481 13.5869 10.6965 13.5664 10.6484C13.5461 10.5999 13.5177 10.5553 13.4824 10.5164C13.4434 10.4811 13.3988 10.4528 13.3504 10.4324Z" fill="white"/>
</g>
<defs>
<clipPath id="clip0">
<rect width="24" height="24" fill="white"/>
</clipPath>
</defs>
</svg>
