<svg width="48" height="48" viewBox="0 0 48 48" fill="none" xmlns="http://www.w3.org/2000/svg">
<g clip-path="url(#clip0)">
<path d="M47.7654 6.63436L41.3654 0.234399C41.2154 0.0843995 41.012 0 40.7998 0H18.4C17.9582 0 17.6 0.358198 17.6 0.799995V9.59994H19.2V1.59999H39.9998V7.19995C39.9998 7.64175 40.358 7.99995 40.7998 7.99995H46.3998V38.3998H34.3999V39.9997H47.1998C47.6416 39.9997 47.9998 39.6415 47.9998 39.1998V7.19995C47.9998 6.98776 47.9155 6.78436 47.7654 6.63436ZM41.5998 6.39996V2.73118L45.2686 6.39996H41.5998Z" fill="#FCB32A"/>
<path d="M25.6 11.2H0.800117C0.35832 11.2 0.00012207 11.5581 0.00012207 11.9999V47.1997C0.00012207 47.6415 0.35832 47.9997 0.800117 47.9997H25.6C26.0418 47.9997 26.4 47.6415 26.4 47.1997V11.9999C26.4 11.5581 26.0419 11.2 25.6 11.2ZM24.8 46.3997H1.60011V12.7999H24.8V46.3997Z" fill="#FCB32A"/>
<path d="M22.4 15.2H4.00007C3.55827 15.2 3.20007 15.5581 3.20007 15.9999V22.3999C3.20007 22.8417 3.55827 23.1999 4.00007 23.1999H22.4C22.8418 23.1999 23.1999 22.8417 23.1999 22.3999V15.9999C23.1999 15.5581 22.8419 15.2 22.4 15.2ZM21.6 21.5999H4.80006V16.7999H21.6V21.5999Z" fill="#FCB32A"/>
<path d="M8.00004 39.1997H4.00007C3.55827 39.1997 3.20007 39.5579 3.20007 39.9997V43.9997C3.20007 44.4415 3.55827 44.7997 4.00007 44.7997H8.00004C8.44184 44.7997 8.80004 44.4415 8.80004 43.9997V39.9997C8.80004 39.5579 8.44194 39.1997 8.00004 39.1997ZM7.20005 43.1997H4.80006V40.7997H7.20005V43.1997Z" fill="#FCB32A"/>
<path d="M15.2 39.1997H11.2C10.7582 39.1997 10.4 39.5579 10.4 39.9997V43.9997C10.4 44.4415 10.7582 44.7997 11.2 44.7997H15.2C15.6418 44.7997 16 44.4415 16 43.9997V39.9997C16 39.5579 15.6419 39.1997 15.2 39.1997ZM14.4 43.1997H12V40.7997H14.4V43.1997Z" fill="#FCB32A"/>
<path d="M8.00004 31.9998H4.00007C3.55827 31.9998 3.20007 32.358 3.20007 32.7998V36.7997C3.20007 37.2415 3.55827 37.5997 4.00007 37.5997H8.00004C8.44184 37.5997 8.80004 37.2415 8.80004 36.7997V32.7998C8.80004 32.358 8.44194 31.9998 8.00004 31.9998ZM7.20005 35.9997H4.80006V33.5997H7.20005V35.9997Z" fill="#FCB32A"/>
<path d="M15.2 31.9998H11.2C10.7582 31.9998 10.4 32.358 10.4 32.7998V36.7997C10.4 37.2415 10.7582 37.5997 11.2 37.5997H15.2C15.6418 37.5997 16 37.2415 16 36.7997V32.7998C16 32.358 15.6419 31.9998 15.2 31.9998ZM14.4 35.9997H12V33.5997H14.4V35.9997Z" fill="#FCB32A"/>
<path d="M8.00004 24.7998H4.00007C3.55827 24.7998 3.20007 25.158 3.20007 25.5998V29.5998C3.20007 30.0416 3.55827 30.3998 4.00007 30.3998H8.00004C8.44184 30.3998 8.80004 30.0416 8.80004 29.5998V25.5998C8.80004 25.158 8.44194 24.7998 8.00004 24.7998ZM7.20005 28.7998H4.80006V26.3998H7.20005V28.7998Z" fill="#FCB32A"/>
<path d="M15.2 24.7998H11.2C10.7582 24.7998 10.4 25.158 10.4 25.5998V29.5998C10.4 30.0416 10.7582 30.3998 11.2 30.3998H15.2C15.6418 30.3998 16 30.0416 16 29.5998V25.5998C16 25.158 15.6419 24.7998 15.2 24.7998ZM14.4 28.7998H12V26.3998H14.4V28.7998Z" fill="#FCB32A"/>
<path d="M22.3999 24.7998H18.4C17.9582 24.7998 17.6 25.158 17.6 25.5998V29.5998C17.6 30.0416 17.9582 30.3998 18.4 30.3998H22.3999C22.8417 30.3998 23.1999 30.0416 23.1999 29.5998V25.5998C23.1999 25.158 22.8418 24.7998 22.3999 24.7998ZM21.6 28.7998H19.2V26.3998H21.6V28.7998Z" fill="#FCB32A"/>
<path d="M22.3999 31.9998H18.4C17.9582 31.9998 17.6 32.358 17.6 32.7998V43.9997C17.6 44.4415 17.9582 44.7997 18.4 44.7997H22.3999C22.8417 44.7997 23.1999 44.4415 23.1999 43.9997V32.7998C23.1999 32.358 22.8418 31.9998 22.3999 31.9998ZM21.6 43.1997H19.2V33.5997H21.6V43.1997Z" fill="#FCB32A"/>
<path d="M20 18.3999H18.4V19.9999H20V18.3999Z" fill="#FCB32A"/>
<path d="M16.8001 18.3999H15.2001V19.9999H16.8001V18.3999Z" fill="#FCB32A"/>
<path d="M13.6 18.3999H12V19.9999H13.6V18.3999Z" fill="#FCB32A"/>
<path d="M38.3999 4.79993H23.2V6.39992H38.3999V4.79993Z" fill="#FCB32A"/>
<path d="M38.3999 8H23.2V9.59999H38.3999V8Z" fill="#FCB32A"/>
<path d="M40.7999 11.2V19.9999H39.1999V12.7999H37.5999V19.9999H36V16.7999H34.4V19.9999H32.8V14.3999H31.2V19.9999H29.6V16.7999H28V19.9999V20.7999V21.5999H42.3999V20.7999V19.9999V11.2H40.7999Z" fill="#FCB32A"/>
<path d="M35.2 27.1999H32.8V24.7999C32.8 24.3581 32.4418 23.9999 32 23.9999H28.8C28.3582 23.9999 28 24.3581 28 24.7999V44.7997C28.0003 44.9577 28.047 45.1121 28.1344 45.2437L29.7344 47.6437C29.9795 48.0113 30.4762 48.1106 30.8438 47.8655C30.9316 47.8069 31.007 47.7316 31.0656 47.6437L32.6656 45.2437C32.753 45.1121 32.7997 44.9577 32.8 44.7997V28.7998H34.4V36.7998H36V27.9999C36 27.5581 35.6419 27.1999 35.2 27.1999ZM31.2 44.5597L30.4 45.7597L29.6 44.5597V28.7998H31.2V44.5597ZM31.2 27.1999H29.6V25.5999H31.2V27.1999Z" fill="#FCB32A"/>
<path d="M42.3999 23.9999H34.3999V25.5999H42.3999V23.9999Z" fill="#FCB32A"/>
<path d="M42.3998 27.1998H37.5999V28.7998H42.3998V27.1998Z" fill="#FCB32A"/>
<path d="M42.3998 30.3998H37.5999V31.9998H42.3998V30.3998Z" fill="#FCB32A"/>
<path d="M42.3998 33.5999H37.5999V35.1998H42.3998V33.5999Z" fill="#FCB32A"/>
</g>
<defs>
<clipPath id="clip0">
<rect width="48" height="48" fill="white"/>
</clipPath>
</defs>
</svg>
