<svg width="48" height="48" viewBox="0 0 48 48" fill="none" xmlns="http://www.w3.org/2000/svg">
<path d="M45.75 6.75H43.5V5.25C43.5 5.05109 43.421 4.86032 43.2803 4.71967C43.1397 4.57902 42.9489 4.5 42.75 4.5H40.5V3.00675C40.5 2.80784 40.421 2.61707 40.2803 2.47642C40.1397 2.33577 39.9489 2.25675 39.75 2.25675L36.75 2.25C36.5511 2.25 36.3603 2.32902 36.2197 2.46967C36.079 2.61032 36 2.80109 36 3V4.5H5.25C4.2558 4.50119 3.30267 4.89666 2.59966 5.59966C1.89666 6.30267 1.50119 7.2558 1.5 8.25V42.75C1.50119 43.7442 1.89666 44.6973 2.59966 45.4003C3.30267 46.1033 4.2558 46.4988 5.25 46.5H10.5C10.6989 46.5 10.8897 46.421 11.0303 46.2803C11.171 46.1397 11.25 45.9489 11.25 45.75V43.5H45.75C45.9489 43.5 46.1397 43.421 46.2803 43.2803C46.421 43.1397 46.5 42.9489 46.5 42.75V7.5C46.5 7.30109 46.421 7.11032 46.2803 6.96967C46.1397 6.82902 45.9489 6.75 45.75 6.75ZM39 9H37.5V7.5H39V9ZM39 10.5V27H37.5V10.5H39ZM38.9625 28.5L38.25 30.6285L37.5405 28.4955L38.9625 28.5ZM39 3.75525V6H37.5V3.75L39 3.75525ZM5.25 6H36V28.5C36.0003 28.5803 36.0132 28.66 36.0382 28.7362L37.5382 33.2362C37.5876 33.3863 37.683 33.517 37.8109 33.6096C37.9389 33.7022 38.0928 33.7521 38.2507 33.7521C38.4087 33.7521 38.5626 33.7022 38.6906 33.6096C38.8185 33.517 38.9139 33.3863 38.9632 33.2362L40.4632 28.743C40.4881 28.6667 40.5005 28.587 40.5 28.5067V6H42V39H5.25C4.4359 39.0028 3.64529 39.2731 3 39.7695V8.25C3 7.65326 3.23705 7.08097 3.65901 6.65901C4.08097 6.23705 4.65326 6 5.25 6ZM45 42H4.5V43.5H9.75V45H5.25C4.65326 45 4.08097 44.7629 3.65901 44.341C3.23705 43.919 3 43.3467 3 42.75C3 42.1533 3.23705 41.581 3.65901 41.159C4.08097 40.7371 4.65326 40.5 5.25 40.5H42.75C42.9489 40.5 43.1397 40.421 43.2803 40.2803C43.421 40.1397 43.5 39.9489 43.5 39.75V8.25H45V42Z" fill="#FCB32A"/>
<path d="M6.75 35.25H10.5V33.75H7.5V21.75H10.5V20.25H7.5V11.25H16.5V20.25H13.5V21.75H21.75V26.25H23.25V21.75H26.25V20.25H18V11.25H31.5V20.25H29.25V21.75H31.5V33.75H23.25V29.25H21.75V33.75H13.5V35.25H32.25C32.4489 35.25 32.6397 35.171 32.7803 35.0303C32.921 34.8897 33 34.6989 33 34.5V10.5C33 10.3011 32.921 10.1103 32.7803 9.96967C32.6397 9.82902 32.4489 9.75 32.25 9.75H6.75C6.55109 9.75 6.36032 9.82902 6.21967 9.96967C6.07902 10.1103 6 10.3011 6 10.5V34.5C6 34.6989 6.07902 34.8897 6.21967 35.0303C6.36032 35.171 6.55109 35.25 6.75 35.25Z" fill="#FCB32A"/>
<path d="M43.5 45H24V46.5H43.5V45Z" fill="#FCB32A"/>
<path d="M27.75 1.5H8.25V3H27.75V1.5Z" fill="#FCB32A"/>
<path d="M22.5 45H21V46.5H22.5V45Z" fill="#FCB32A"/>
</svg>
