<svg width="64" height="64" viewBox="0 0 64 64" fill="none" xmlns="http://www.w3.org/2000/svg">
<g clip-path="url(#clip0)">
<path d="M24.8415 27.6451H7.06243C6.50055 27.6457 6.04491 28.1014 6.04434 28.6632V32.9685C6.04377 33.239 6.15115 33.498 6.34204 33.6889C6.53293 33.8804 6.79256 33.9872 7.06243 33.9866H24.8415C25.4034 33.986 25.859 33.5304 25.8596 32.9685V28.6632C25.8567 28.1025 25.4028 27.648 24.8415 27.6451ZM23.8234 31.9504H8.08052V29.6813H23.8234V31.9504ZM63.6976 32.0959C63.5084 31.9038 63.2511 31.7953 62.9818 31.7931C62.5562 31.8027 62.1313 31.7419 61.7251 31.613V7.42312C61.7245 6.86124 61.2694 6.4056 60.707 6.40503H1.01809C0.456209 6.4056 0.00056813 6.86124 0 7.42312V45.785C0.00056813 46.3469 0.456209 46.8025 1.01809 46.8031H39.176C40.9798 51.6197 44.8016 55.2387 50.596 57.6004C50.7175 57.6515 50.8482 57.6776 50.98 57.6759C51.1118 57.6771 51.2425 57.6509 51.3641 57.6004C59.7474 54.1853 63.9999 48.141 63.9999 39.6355V32.8112C63.9982 32.5424 63.8891 32.2845 63.6976 32.0959ZM2.03618 14.3231H59.6889V21.1991H2.03618V14.3231ZM59.6889 8.44121V12.2869H2.03618V8.44121H59.6889ZM2.03618 44.7669V23.2353H59.6889V27.3253C59.5946 27.277 59.4923 27.2457 59.3866 27.2321L51.1022 26.214C51.0192 26.2027 50.9351 26.2027 50.8522 26.214L42.5734 27.2321C42.2962 27.2685 42.0456 27.4162 41.8803 27.6412C41.7144 27.8661 41.6474 28.1496 41.6951 28.4252C41.7008 28.4422 41.9683 30.0478 41.1656 31.0079C41.0519 31.1437 40.919 31.2613 40.7702 31.3567V28.6632C40.7673 28.1025 40.3134 27.648 39.7521 27.6451H29.9263C29.3638 27.6457 28.9087 28.1014 28.9082 28.6632V32.9685C28.907 33.239 29.0144 33.498 29.2053 33.6889C29.3968 33.8804 29.6558 33.9872 29.9263 33.9866H37.9602V38.5299H34.836C34.2736 38.5299 33.8179 38.9862 33.8179 39.548C33.8179 40.1105 34.2736 40.5661 34.836 40.5661H37.9778C38.0255 41.9819 38.2164 43.3892 38.5476 44.7669H2.03618ZM38.734 31.8283C38.63 31.8504 38.5317 31.8919 38.4431 31.9504H30.9443V29.6813H38.734V31.8283ZM61.9637 39.6355C61.9819 40.79 61.9023 41.9444 61.7251 43.0852C61.5194 44.3658 61.1518 45.6151 60.6314 46.8031C59.2702 49.8744 56.5244 53.1962 50.98 55.5528C45.43 53.1962 42.6842 49.8744 41.3286 46.8031C41.0355 46.144 40.794 45.4634 40.6071 44.7669C40.2316 43.3971 40.0305 41.9859 40.0077 40.5661C39.9964 40.2116 39.9964 39.8974 39.9964 39.6355V33.952C40.1912 33.9059 40.3674 33.8025 40.5026 33.6548C41.3758 33.4634 42.1609 32.989 42.7365 32.3055C43.4301 31.3976 43.7966 30.2824 43.7778 29.1405L43.8187 29.1348L50.98 28.2502L55.6807 28.832L58.1822 29.1405C58.1623 30.283 58.5293 31.3982 59.2236 32.3055C59.3656 32.4731 59.5213 32.6288 59.6889 32.7708C60.2707 33.2622 60.974 33.5878 61.7251 33.7133C61.8035 33.7349 61.883 33.7503 61.9637 33.7599V39.6355ZM54.7848 35.9762L48.5132 42.2478L47.1753 40.9098C46.1344 39.8685 44.4465 39.8685 43.4057 40.9098C42.3643 41.9507 42.3643 43.6386 43.4057 44.6794L43.4926 44.7669L45.5288 46.8031L46.6287 47.9024C47.127 48.4052 47.8053 48.6875 48.5132 48.6875C49.2211 48.6875 49.9 48.4052 50.3983 47.9024L53.5338 44.7669L58.5549 39.7463C59.5957 38.7049 59.5957 37.017 58.5549 35.9762C57.5135 34.9354 55.8256 34.9354 54.7848 35.9762ZM57.1175 38.3089L55.6518 39.7753L54.8893 40.5372L50.6602 44.7669L48.9615 46.4656C48.7103 46.7042 48.3166 46.7042 48.0655 46.4656L44.8425 43.2426C44.6596 43.0625 44.6045 42.7898 44.7028 42.5529C44.8016 42.3165 45.034 42.1631 45.2902 42.166C45.4561 42.1648 45.6152 42.2296 45.7328 42.3466L47.7922 44.4061C47.9826 44.5987 48.2422 44.7072 48.5132 44.7072C48.7842 44.7072 49.0444 44.5987 49.2347 44.4061L56.2216 37.4193C56.4676 37.1716 56.8676 37.1704 57.1147 37.4158C57.3624 37.6618 57.3635 38.0618 57.1175 38.3089Z" fill="#FCB32A"/>
</g>
<defs>
<clipPath id="clip0">
<rect width="64" height="64" fill="white"/>
</clipPath>
</defs>
</svg>
