<svg width="48" height="48" viewBox="0 0 48 48" fill="none" xmlns="http://www.w3.org/2000/svg">
<g clip-path="url(#clip0)">
<path d="M47.5388 17.1029L42.0148 11.5788C41.7406 11.3048 41.2961 11.3046 41.0219 11.5788C40.7477 11.8531 40.7477 12.2976 41.0219 12.5718L46.5459 18.0958C46.5871 18.137 46.5958 18.1841 46.5958 18.2163C46.5958 18.2485 46.5871 18.2956 46.5458 18.3368L44.2573 20.6253C44.2161 20.6666 44.1691 20.6753 44.1369 20.6753C44.1046 20.6753 44.0576 20.6666 44.0164 20.6253L34.9608 11.5699C34.8944 11.5035 34.8944 11.3953 34.9608 11.3289L37.2494 9.04031C37.3157 8.97385 37.4239 8.97366 37.4904 9.04031L38.6935 10.2434C38.9678 10.5175 39.4123 10.5175 39.6865 10.2434C39.9607 9.96915 39.9607 9.52467 39.6865 9.25048L38.4832 8.04735C37.8691 7.43325 36.8703 7.43362 36.2564 8.04735L33.9678 10.3359C33.4888 10.8149 33.3853 11.5278 33.6539 12.11C32.0381 13.3463 29.6417 13.1551 27.5199 12.9855C27.3209 12.9696 24.621 12.7582 24.0995 12.721C23.1152 12.6506 21.9536 12.579 20.7786 12.579C20.7589 12.579 20.7391 12.5791 20.7195 12.5791C20.316 12.5799 19.9155 12.6614 19.538 12.8128C18.5624 12.8638 17.6134 12.9557 16.676 13.166C16.0029 13.3169 15.3141 13.121 14.8346 12.6413L14.3325 12.1393C14.6183 11.552 14.5193 10.823 14.0322 10.3359L11.7436 8.04735C11.1296 7.43353 10.1308 7.43353 9.51667 8.04735L0.461328 17.1029C0.163824 17.4003 0 17.7957 0 18.2164C0 18.6369 0.163824 19.0324 0.461234 19.3299L2.74971 21.6184C3.04722 21.9158 3.44264 22.0797 3.86325 22.0797C4.11376 22.0797 4.35462 22.0203 4.57181 21.9106C4.57181 21.9106 6.60257 23.8872 6.8586 24.1439C7.20815 24.4943 7.26807 25.0532 7.33734 25.7003C7.37404 26.0419 7.41186 26.3953 7.49761 26.7467C7.77236 27.8736 8.26149 28.9534 8.95143 29.9564C9.17114 30.2758 9.60813 30.3566 9.92782 30.1369C10.2472 29.9171 10.328 29.48 10.1083 29.1605C9.51545 28.2986 9.09606 27.3746 8.86184 26.414C8.79818 26.1531 8.76682 25.8604 8.73368 25.5506C8.6484 24.7548 8.5517 23.8529 7.85287 23.1522C7.58823 22.8869 5.62187 20.9732 5.62187 20.9732L13.4014 13.1938L13.8418 13.6342C14.6634 14.4558 15.8376 14.7929 16.9837 14.5361C17.2441 14.4777 17.5083 14.4296 17.7758 14.389C17.4688 14.9515 17.3216 15.5857 17.3627 16.2152C17.4772 17.9663 18.962 19.3691 20.7433 19.409L22.0079 19.4369C22.0154 19.437 22.0228 19.4371 22.0303 19.4371L23.544 19.4222C24.6572 20.5436 33.5456 29.5073 34.0746 30.0001C34.5556 30.4482 35.099 30.966 35.1201 31.6705C35.1381 32.2717 34.6745 32.8874 34.1093 33.0748C33.5548 33.2586 32.9253 33.1197 32.5105 32.7054L23.9219 24.1168C23.6476 23.8427 23.2032 23.8427 22.929 24.1168C22.6548 24.3911 22.6548 24.8355 22.929 25.1097L33.3359 35.5166C33.7774 36.1458 33.689 37.0059 33.122 37.5355C32.5199 38.098 31.5406 38.0659 30.9382 37.4635L20.7531 27.2854C20.4788 27.0114 20.0343 27.0112 19.7601 27.2854C19.486 27.5597 19.486 28.0042 19.7601 28.2784L27.8577 36.376C28.4532 36.9802 28.451 37.9559 27.85 38.5567C27.2467 39.1602 26.2644 39.1603 25.6605 38.5564L17.5727 30.4658C17.2984 30.1917 16.8539 30.1917 16.5797 30.4658C16.3055 30.7401 16.3055 31.1846 16.5797 31.4588C16.5797 31.4588 20.3613 35.2492 20.3827 35.2707C20.6751 35.563 20.8361 35.9517 20.8361 36.3652C20.8361 36.7787 20.6751 37.1674 20.3827 37.4597C19.7792 38.0634 18.7971 38.0632 18.1936 37.4599C18.1565 37.4228 14.4656 33.7299 12.2289 31.4699C11.9562 31.1943 11.5117 31.1921 11.2361 31.4647C10.9605 31.7375 10.9581 32.1821 11.2308 32.4576C13.47 34.7201 17.1634 38.4155 17.2006 38.4527C18.3517 39.6037 20.2246 39.6037 21.3757 38.4527C21.7773 38.051 22.0389 37.5614 22.1602 37.0454L24.6679 39.5495C25.2435 40.125 25.9995 40.4129 26.7555 40.4129C27.5115 40.4129 28.2675 40.1251 28.8431 39.5495C29.2452 39.1474 29.5069 38.657 29.6281 38.1402L29.9458 38.457C31.0766 39.588 32.9315 39.635 34.0805 38.5616C35.1826 37.5321 35.3346 35.8458 34.4341 34.6392C34.4139 34.6122 34.2874 34.4822 34.2874 34.4822C34.6599 34.4533 35.2259 34.1419 35.6927 33.6982C35.7221 33.6703 38.6591 30.7156 38.7038 30.6615C40.0151 29.0586 40.7832 27.1811 40.9253 25.2321C40.9616 24.7362 41.1703 24.2779 41.5096 23.9447L43.5524 21.967C43.7359 22.0403 43.9333 22.0796 44.1369 22.0796C44.5575 22.0796 44.953 21.9157 45.2505 21.6183L47.539 19.3299C47.8364 19.0323 48.0002 18.6369 48.0002 18.2163C48 17.7957 47.8362 17.4003 47.5388 17.1029ZM13.0393 11.5699L3.98373 20.6255C3.94254 20.6667 3.89545 20.6754 3.86325 20.6754C3.83104 20.6754 3.78396 20.6667 3.74277 20.6254L1.45429 18.3369C1.413 18.2957 1.4043 18.2486 1.4043 18.2164C1.4043 18.1842 1.413 18.1371 1.45429 18.0959L10.5096 9.04041C10.5429 9.00727 10.5866 8.9906 10.6302 8.9906C10.6739 8.9906 10.7175 9.00717 10.7507 9.04041L13.0393 11.329C13.1057 11.3953 13.1057 11.5036 13.0393 11.5699ZM40.5293 22.9394C39.9426 23.5152 39.5858 24.2932 39.5247 25.13C39.404 26.7864 38.7463 28.3891 37.6247 29.7628C37.5791 29.8126 37.3627 30.0378 36.43 30.9807C36.3721 30.7614 36.2861 30.547 36.1759 30.341C35.9453 29.9098 35.6028 29.5772 35.2626 29.2345L25.471 19.3632C26.3943 19.3293 27.3736 19.2774 28.0611 19.1617C28.0913 19.1815 28.1246 19.2095 28.14 19.2295C28.4749 19.9411 29.5528 21.4371 31.278 22.0832C31.3592 22.1135 31.4424 22.1281 31.5242 22.1281C31.8085 22.1281 32.0761 21.954 32.1817 21.6721C32.3178 21.3089 32.1336 20.9043 31.7705 20.7683C30.5653 20.3169 29.6817 19.2147 29.4079 18.626C29.1762 18.1282 28.5056 17.6503 27.9132 17.762C25.5904 18.1997 23.1125 18.057 20.7742 18.0055C19.7142 17.9817 18.831 17.1552 18.7636 16.1239C18.7286 15.5893 18.9334 15.0422 19.3256 14.6229C19.7044 14.2176 20.2134 13.9846 20.7222 13.9836C21.8732 13.9846 23.024 14.0521 23.9993 14.1218C24.5162 14.1588 25.0327 14.1999 25.5492 14.2409C25.9756 14.2748 26.4019 14.3087 26.8284 14.3403C27.0182 14.3544 27.2116 14.3698 27.4079 14.3856C29.6937 14.568 32.5275 14.7934 34.5755 13.171L42.4676 21.0629L40.5293 22.9394Z" fill="#FCB32A"/>
</g>
<defs>
<clipPath id="clip0">
<rect width="48" height="48" fill="white"/>
</clipPath>
</defs>
</svg>
