<svg width="24" height="24" viewBox="0 0 24 24" fill="none" xmlns="http://www.w3.org/2000/svg">
<path d="M22.8 2.80005H1.2C0.537281 2.80005 0 3.33728 0 4.00005V20C0 20.6628 0.537234 21.2 1.2 21.2H22.8C23.4627 21.2 24 20.6628 24 20V4.00005C24 3.33733 23.4628 2.80005 22.8 2.80005ZM23.2 20.0001C23.2 20.221 23.0209 20.4001 22.8 20.4001H1.2C0.979078 20.4001 0.800016 20.221 0.800016 20.0001V4.00005C0.800016 3.77913 0.979078 3.60006 1.2 3.60006H22.8C23.0209 3.60006 23.2 3.77913 23.2 4.00005V20.0001Z" fill="white"/>
<path d="M22.0348 4.40145C21.9291 4.39221 21.8241 4.42535 21.7428 4.4936L12.5148 12.2456C12.2172 12.4957 11.7828 12.4957 11.4852 12.2456L2.25722 4.49356C2.14776 4.40168 1.99758 4.37515 1.86328 4.42399C1.72898 4.47284 1.63092 4.58965 1.60608 4.73042C1.58123 4.87118 1.63336 5.01448 1.74281 5.10635L10.9708 12.8579C11.5656 13.3587 12.4344 13.3587 13.0292 12.8579L22.2572 5.1064C22.3385 5.0382 22.3893 4.94051 22.3985 4.83481C22.4077 4.7291 22.3746 4.62406 22.3064 4.54282C22.2382 4.46149 22.1405 4.41068 22.0348 4.40145Z" fill="white"/>
<path d="M7.69331 12.8031C7.5517 12.7715 7.40414 12.819 7.30758 12.9273L1.70756 18.9273C1.60622 19.0311 1.569 19.1816 1.61034 19.3207C1.65168 19.4597 1.76508 19.5655 1.90664 19.5971C2.04825 19.6287 2.19581 19.5811 2.29237 19.4729L7.89239 13.4729C7.99373 13.3691 8.03095 13.2185 7.98961 13.0795C7.94826 12.9405 7.83492 12.8347 7.69331 12.8031Z" fill="white"/>
<path d="M16.6924 12.9273C16.5959 12.819 16.4483 12.7715 16.3067 12.8031C16.1651 12.8347 16.0517 12.9405 16.0104 13.0795C15.969 13.2186 16.0062 13.3691 16.1076 13.4729L21.7076 19.4729C21.8595 19.6284 22.1077 19.6342 22.2667 19.4859C22.4256 19.3376 22.4371 19.0895 22.2924 18.9272L16.6924 12.9273Z" fill="white"/>
</svg>
